<?xml version="1.0" encoding="UTF-8"?>
<svg width="191px" height="63px" viewBox="0 0 191 63" version="1.1" xmlns="http://www.w3.org/2000/svg" xmlns:xlink="http://www.w3.org/1999/xlink">
    <!-- Generator: Sketch 54.1 (76490) - https://sketchapp.com -->
    <title>Group 7</title>
    <desc>Created with Sketch.</desc>
    <g id="Page-1" stroke="none" stroke-width="1" fill="none" fill-rule="evenodd">
        <g id="Artboard" transform="translate(-123.000000, -69.000000)">
            <g id="Group-7" transform="translate(123.000000, 69.000000)">
                <g id="Group-2" transform="translate(60.168498, 15.400000)" fill="#092533">
                    <path d="M12.9324843,4.2966 C12.2888101,3.66198 11.5528829,3.15462 10.7242834,2.7741 C9.89610319,2.394 8.9647674,2.20374 7.930276,2.20374 C7.2127994,2.20374 6.56157722,2.2995 5.97577078,2.4906 C5.38996434,2.68128 4.88844359,2.94924 4.47162784,3.29448 C4.05481209,3.6393 3.73066866,4.04796 3.49835888,4.52046 C3.2660491,4.99254 3.15031354,5.50452 3.15031354,6.0564 C3.15031354,6.6297 3.26898442,7.15218 3.50632618,7.62468 C3.74366795,8.09676 4.078714,8.50542 4.51146435,8.85024 C4.94379538,9.19548 5.46921804,9.46344 6.08647436,9.65454 C6.70373067,9.84522 7.39227339,9.94056 8.15252182,9.94056 C9.12285546,9.94056 9.99883946,9.76626 10.7796352,9.41766 C11.5608502,9.06864 12.2888101,8.52978 12.9643535,7.80024 L15.3226752,9.06864 C14.8479917,9.60792 14.3548575,10.0716 13.8428535,10.4601 C13.3308494,10.8486 12.7873955,11.16864 12.2120724,11.42022 C11.6371686,11.67264 11.0249442,11.85618 10.376238,11.97126 C9.7271125,12.08676 9.02766716,12.14472 8.27874068,12.14472 C7.25515191,12.14472 6.30788151,12.02544 5.43734883,11.78772 C4.56681614,11.55 3.7193467,11.17746 2.89535984,10.6701 C2.12043479,10.19424 1.5048558,9.54996 1.04862287,8.736 C0.591970613,7.92204 0.363854148,7.02912 0.363854148,6.0564 C0.363854148,5.23194 0.531167511,4.46586 0.865794237,3.75732 C1.20000163,3.04962 1.69607108,2.4255 2.35400257,1.88664 C3.08531712,1.28436 3.94662451,0.81942 4.93918273,0.4914 C5.93090228,0.16422 7.00145621,0 8.15252182,0 C9.70362992,0 11.07778,0.27762 12.2758108,0.83244 C13.4734222,1.38726 14.5364282,2.2407 15.465248,3.39276 L12.9324843,4.2966 Z" id="Fill-2"></path>
                    <path d="M23.8862679,2.44167 L21.3694388,7.15029 L26.403097,7.15029 L23.8862679,2.44167 Z M28.8884762,11.82741 L27.5747099,9.35403 L20.2296952,9.35403 L18.9159288,11.82741 L16.0984389,11.82741 L22.192587,0.34881 L25.6273333,0.34881 L31.7059661,11.82741 L28.8884762,11.82741 Z" id="Fill-4"></path>
                    <path d="M42.501494,5.565 C43.103235,5.565 43.5644999,5.42766 43.8865467,5.15298 C44.2081741,4.87788 44.3691975,4.50282 44.3691975,4.02696 C44.3691975,3.58302 44.2052388,3.22644 43.8785794,2.9568 C43.5515006,2.68716 43.0868811,2.55276 42.4855594,2.55276 L36.201454,2.55276 L36.201454,5.565 L42.501494,5.565 Z M44.2903632,11.82762 L41.4724539,7.76874 L36.201454,7.76874 L36.201454,11.82762 L33.4154139,11.82762 L33.4154139,0.34902 L42.8021548,0.34902 C43.4563123,0.34902 44.0496667,0.43848 44.5830567,0.61824 C45.115608,0.798 45.569325,1.0542 45.9442075,1.38726 C46.3190901,1.72032 46.6092677,2.1168 46.8147402,2.57628 C47.0206321,3.03618 47.1233684,3.54606 47.1233684,4.10634 C47.1233684,5.93502 46.2528357,7.08708 44.5117703,7.56252 L47.4240292,11.82762 L44.2903632,11.82762 Z" id="Fill-6"></path>
                    <polygon id="Fill-8" points="50.083473 11.827494 50.083473 0.348894 52.8695131 0.348894 52.8695131 9.623754 61.6863822 9.623754 61.6863822 11.827494"></polygon>
                    <path d="M75.2044632,6.07236 C75.2044632,5.49948 75.0883084,4.97658 74.8564179,4.50408 C74.6241081,4.032 74.2945134,3.62586 73.8672143,3.2865 C73.439496,2.94672 72.9224599,2.68128 72.3156869,2.4906 C71.7089139,2.2995 71.0308545,2.20374 70.281928,2.20374 C69.5321628,2.20374 68.8541034,2.2995 68.2473304,2.4906 C67.6405574,2.68128 67.1235213,2.94672 66.6962223,3.2865 C66.2689233,3.62586 65.9389092,4.032 65.7070187,4.50408 C65.474709,4.97658 65.3589734,5.49948 65.3589734,6.07236 C65.3589734,6.65616 65.472193,7.18662 65.6990514,7.66416 C65.9259099,8.1417 66.2529887,8.55036 66.680707,8.89014 C67.1075867,9.22992 67.6225261,9.49242 68.2238478,9.67806 C68.8251695,9.86412 69.5057449,9.95652 70.2659934,9.95652 C71.0254032,9.95652 71.7089139,9.86412 72.3156869,9.67806 C72.9224599,9.49242 73.439496,9.22992 73.8672143,8.89014 C74.2945134,8.55036 74.6241081,8.1417 74.8564179,7.66416 C75.0883084,7.18662 75.2044632,6.65616 75.2044632,6.07236 M78.069757,6.07236 C78.069757,7.7742 77.4101482,9.17448 76.0909305,10.27362 C75.3629706,10.87632 74.5054372,11.34126 73.5183303,11.66886 C72.5320621,11.99646 71.4476702,12.16068 70.2659934,12.16068 C69.0943805,12.16068 68.012924,11.99646 67.0207851,11.66886 C66.0286462,11.34126 65.1740481,10.87632 64.4565715,10.27362 C63.8019947,9.73476 63.3113765,9.11106 62.9842978,8.40294 C62.657219,7.69482 62.4936796,6.91824 62.4936796,6.07236 C62.4936796,5.2374 62.659735,4.46838 62.9922651,3.7653 C63.3247951,3.06264 63.8179293,2.44146 64.4720868,1.9026 C65.200466,1.2999 66.0630314,0.83244 67.0602023,0.49938 C68.0577925,0.16632 69.1312817,0 70.281928,0 C71.4317356,0 72.5056442,0.16632 73.5028151,0.49938 C74.4999859,0.83244 75.3629706,1.2999 76.0909305,1.9026 C77.4101482,3.00174 78.069757,4.39194 78.069757,6.07236" id="Fill-10"></path>
                    <polygon id="Fill-12" points="94.9752837 11.827494 94.9752837 3.678234 94.9278992 3.678234 89.4665227 10.257954 84.0055655 3.678234 83.958181 3.678234 83.958181 11.827494 81.1721409 11.827494 81.1721409 0.348894 84.4328645 0.348894 89.4665227 6.437214 94.5001808 0.348894 97.7613238 0.348894 97.7613238 11.827494"></polygon>
                    <path d="M107.258768,2.44167 L104.741939,7.15029 L109.775597,7.15029 L107.258768,2.44167 Z M112.260977,11.82741 L110.94721,9.35403 L103.602196,9.35403 L102.288429,11.82741 L99.4709392,11.82741 L105.565087,0.34881 L108.999834,0.34881 L115.078466,11.82741 L112.260977,11.82741 Z" id="Fill-14"></path>
                    <polygon id="Fill-16" points="127.393653 11.827494 119.621339 3.630774 119.573954 3.630774 119.573954 11.827494 116.787914 11.827494 116.787914 0.348894 120.032703 0.348894 127.805017 8.561574 127.868336 8.561574 127.868336 0.348894 130.654376 0.348894 130.654376 11.827494"></polygon>
                    <path d="M12.1413311,22.608432 C11.3286662,22.164492 10.51055,21.839412 9.68740178,21.633192 C8.86467291,21.426972 8.00420419,21.324072 7.1072536,21.324072 C5.90461018,21.324072 4.9996923,21.432852 4.39249994,21.649152 C3.78572692,21.865872 3.48255007,22.159452 3.48255007,22.529052 C3.48255007,22.920492 3.81508014,23.194752 4.47972094,23.353512 C4.7539639,23.416932 5.04959277,23.464812 5.36618823,23.496312 C5.68278369,23.527812 6.02286173,23.551752 6.38726101,23.567712 C6.75124096,23.583672 7.13618749,23.599212 7.54251995,23.615172 C7.9488524,23.631132 8.37405478,23.660112 8.81686909,23.702112 C9.71381968,23.787372 10.4946154,23.908332 11.1596755,24.067092 C11.8243163,24.225852 12.3782535,24.439632 12.8219065,24.709272 C13.2651402,24.978912 13.5947349,25.314492 13.8111101,25.716012 C14.0274853,26.117532 14.1356728,26.598432 14.1356728,27.158712 C14.1356728,28.406112 13.568317,29.378412 12.4340247,30.076032 C11.299313,30.773232 9.63456598,31.122252 7.43978367,31.122252 C6.00441114,31.122252 4.68016151,30.952992 3.46661547,30.614892 C2.25306942,30.276792 1.09739115,29.727012 2.84217094e-14,28.965972 L1.51965821,27.095292 C2.51137777,27.697572 3.49848468,28.144452 4.47972094,28.435092 C5.46095721,28.725732 6.48999729,28.871052 7.56642186,28.871052 C8.7271321,28.871052 9.61863138,28.723212 10.2417583,28.427112 C10.8640466,28.131012 11.1756101,27.745032 11.1756101,27.269592 C11.1756101,27.015912 11.0854538,26.820612 10.9063991,26.683272 C10.7269252,26.545932 10.4686168,26.440092 10.1306354,26.365752 C9.79265405,26.292252 9.38128961,26.244372 8.89612279,26.223372 C8.41095597,26.202372 7.8616314,26.175912 7.24982639,26.143992 C6.13104932,26.101992 5.15484504,26.009172 4.32163288,25.866372 C3.48758205,25.723572 2.79400736,25.517772 2.24007014,25.248132 C1.68571358,24.978912 1.27141383,24.640392 0.997590201,24.233412 C0.722927914,23.826852 0.585806436,23.337552 0.585806436,22.766772 C0.585806436,21.636132 1.12884104,20.740272 2.21616823,20.079612 C3.30307609,19.419372 4.89150471,19.088832 6.98061542,19.088832 C9.77713877,19.088832 12.0251762,19.649112 13.7238891,20.769252 L12.1413311,22.608432 Z" id="Fill-18"></path>
                    <polygon id="Fill-20" points="23.7126646 26.38188 23.7126646 30.85278 20.9266245 30.85278 20.9266245 26.38188 14.1200318 19.37418 17.6499663 19.37418 22.3196445 24.16218 26.9889034 19.37418 30.518838 19.37418"></polygon>
                    <path d="M42.4068927,22.608432 C41.5942278,22.164492 40.7761116,21.839412 39.9529634,21.633192 C39.1302345,21.426972 38.2697658,21.324072 37.3728152,21.324072 C36.1701718,21.324072 35.2652539,21.432852 34.6580616,21.649152 C34.0512885,21.865872 33.7481117,22.159452 33.7481117,22.529052 C33.7481117,22.920492 34.0806418,23.194752 34.7452826,23.353512 C35.0195255,23.416932 35.3151544,23.464812 35.6317499,23.496312 C35.9483453,23.527812 36.2884234,23.551752 36.6528226,23.567712 C37.0168026,23.583672 37.4017491,23.599212 37.8080816,23.615172 C38.214414,23.631132 38.6396164,23.660112 39.0824307,23.702112 C39.9793813,23.787372 40.760177,23.908332 41.4252371,24.067092 C42.0898779,24.225852 42.6438152,24.439632 43.0874681,24.709272 C43.5307018,24.978912 43.8602965,25.314492 44.0766717,25.716012 C44.2930469,26.117532 44.4012345,26.598432 44.4012345,27.158712 C44.4012345,28.406112 43.8338786,29.378412 42.6995863,30.076032 C41.5648746,30.773232 39.9001276,31.122252 37.7053453,31.122252 C36.2699728,31.122252 34.9457231,30.952992 33.7321771,30.614892 C32.518631,30.276792 31.3629528,29.727012 30.2655616,28.965972 L31.7852198,27.095292 C32.7769394,27.697572 33.7640463,28.144452 34.7452826,28.435092 C35.7265188,28.725732 36.7555589,28.871052 37.8319835,28.871052 C38.9926937,28.871052 39.884193,28.723212 40.50732,28.427112 C41.1296083,28.131012 41.4411717,27.745032 41.4411717,27.269592 C41.4411717,27.015912 41.3510154,26.820612 41.1719608,26.683272 C40.9924868,26.545932 40.7341784,26.440092 40.396197,26.365752 C40.0582157,26.292252 39.6468512,26.244372 39.1616844,26.223372 C38.6765176,26.202372 38.127193,26.175912 37.515388,26.143992 C36.3966109,26.101992 35.4204067,26.009172 34.5871945,25.866372 C33.7531437,25.723572 33.059569,25.517772 32.5056318,25.248132 C31.9512752,24.978912 31.5369754,24.640392 31.2631518,24.233412 C30.9884895,23.826852 30.8513681,23.337552 30.8513681,22.766772 C30.8513681,21.636132 31.3944027,20.740272 32.4817299,20.079612 C33.5686377,19.419372 35.1570663,19.088832 37.246177,19.088832 C40.0427004,19.088832 42.2907378,19.649112 43.9894507,20.769252 L42.4068927,22.608432 Z" id="Fill-22"></path>
                    <polygon id="Fill-24" points="53.2816743 21.57792 53.2816743 30.85278 50.4956342 30.85278 50.4956342 21.57792 45.034677 21.57792 45.034677 19.37418 58.7426315 19.37418 58.7426315 21.57792"></polygon>
                    <polygon id="Fill-26" points="60.8165624 30.85278 60.8165624 19.37418 73.2426197 19.37418 73.2426197 21.57792 63.6026024 21.57792 63.6026024 23.92446 70.2980723 23.92446 70.2980723 26.1282 63.6026024 26.1282 63.6026024 28.64904 73.685434 28.64904 73.685434 30.85278"></polygon>
                    <polygon id="Fill-28" points="90.1955728 30.85278 90.1955728 22.70352 90.1481883 22.70352 84.6868118 29.28324 79.2258546 22.70352 79.1784701 22.70352 79.1784701 30.85278 76.3924301 30.85278 76.3924301 19.37418 79.6531536 19.37418 84.6868118 25.4625 89.72047 19.37418 92.9816129 19.37418 92.9816129 30.85278"></polygon>
                    <path d="M107.861138,22.608432 C107.048473,22.164492 106.230357,21.839412 105.407209,21.633192 C104.58448,21.426972 103.724011,21.324072 102.827061,21.324072 C101.624417,21.324072 100.719499,21.432852 100.112307,21.649152 C99.5055341,21.865872 99.2023573,22.159452 99.2023573,22.529052 C99.2023573,22.920492 99.5348873,23.194752 100.199528,23.353512 C100.473771,23.416932 100.7694,23.464812 101.085995,23.496312 C101.402591,23.527812 101.742669,23.551752 102.107068,23.567712 C102.471048,23.583672 102.855995,23.599212 103.262327,23.615172 C103.66866,23.631132 104.093862,23.660112 104.536676,23.702112 C105.433627,23.787372 106.214423,23.908332 106.879483,24.067092 C107.544124,24.225852 108.098061,24.439632 108.541714,24.709272 C108.984947,24.978912 109.314542,25.314492 109.530917,25.716012 C109.747292,26.117532 109.85548,26.598432 109.85548,27.158712 C109.85548,28.406112 109.288124,29.378412 108.153832,30.076032 C107.01912,30.773232 105.354373,31.122252 103.159591,31.122252 C101.724218,31.122252 100.399969,30.952992 99.1864227,30.614892 C97.9728766,30.276792 96.8171983,29.727012 95.7198072,28.965972 L97.2394654,27.095292 C98.231185,27.697572 99.2182919,28.144452 100.199528,28.435092 C101.180764,28.725732 102.209804,28.871052 103.286229,28.871052 C104.446939,28.871052 105.338439,28.723212 105.961566,28.427112 C106.583854,28.131012 106.895417,27.745032 106.895417,27.269592 C106.895417,27.015912 106.805261,26.820612 106.626206,26.683272 C106.446732,26.545932 106.188424,26.440092 105.850443,26.365752 C105.512461,26.292252 105.101097,26.244372 104.61593,26.223372 C104.130763,26.202372 103.581439,26.175912 102.969634,26.143992 C101.850857,26.101992 100.874652,26.009172 100.04144,25.866372 C99.2073892,25.723572 98.5138146,25.517772 97.9598773,25.248132 C97.4055208,24.978912 96.991221,24.640392 96.7173974,24.233412 C96.4427351,23.826852 96.3056136,23.337552 96.3056136,22.766772 C96.3056136,21.636132 96.8486482,20.740272 97.9359754,20.079612 C99.0228833,19.419372 100.611312,19.088832 102.700423,19.088832 C105.496946,19.088832 107.744983,19.649112 109.443696,20.769252 L107.861138,22.608432 Z" id="Fill-30"></path>
                </g>
                <g id="Group-3">
                    <path d="M38.2240877,54.9284074 C41.5267796,53.7070474 44.5550888,51.8187274 47.1861323,49.4877274 C47.8497849,48.8997274 47.8964973,47.8820674 47.2799779,47.2449274 C45.8962813,45.8156674 44.471764,44.4246274 43.0581883,43.0226674 C42.092799,42.0650674 40.5752777,42.0012274 39.5034179,42.8391274 C36.3614839,45.2952874 32.398927,46.7073274 28.3997576,46.6871674 C23.9965892,46.7283274 19.6174083,45.0411874 16.3462789,42.1062274 C13.17657,39.3233074 11.071146,35.4114274 10.3788768,31.2639274 C11.3480536,30.6238474 12.12491,29.5793074 12.0790393,28.3772674 C12.13501,27.1626274 11.3552078,26.1033874 10.3788768,25.4612074 C11.071146,21.3111874 13.17657,17.4014074 16.3488038,14.6189074 C19.6203541,11.6814274 23.9991142,9.99680743 28.4048076,10.0379674 C31.219334,10.0207474 34.0119772,10.7225674 36.5180335,11.9909674 C38.1041505,12.7940074 38.4147247,14.9280274 37.1526486,16.1783674 C36.9498075,16.3791274 36.7465455,16.5798874 36.5437043,16.7806474 C34.5405425,15.3329074 32.1493734,14.4819874 29.6980253,14.2505674 C29.3760885,14.2169674 29.0533102,14.1980674 28.730111,14.1879874 C28.7309526,14.1867274 28.7317943,14.1854674 28.7330568,14.1846274 C28.714961,14.1842074 28.6964444,14.1850474 28.6783486,14.1846274 C28.5613572,14.1812674 28.4443658,14.1850474 28.3269536,14.1846274 C28.2869745,14.1850474 28.2465746,14.1842074 28.2061747,14.1846274 C28.1737707,14.1850474 28.1413666,14.1875674 28.1085417,14.1879874 C28.0992833,14.1879874 28.0904459,14.1884074 28.0811876,14.1888274 C27.8669839,14.1921874 27.6523594,14.1942874 27.4381558,14.2077274 C25.7367308,14.2946674 24.0521391,14.6789674 22.4933763,15.3799474 C18.9158809,16.9410874 16.0571671,20.0461474 14.7992993,23.7354274 C13.6550563,27.0122674 13.7817268,30.7112074 15.151536,33.9036274 C16.5550117,37.2388474 19.2967341,39.9898474 22.6339343,41.4056674 C24.0357266,42.0104674 25.5372563,42.3645274 27.0573026,42.4842274 C27.07624,42.4859074 27.0951775,42.4880074 27.1141149,42.4896874 C27.2525688,42.5018674 27.3914434,42.5127874 27.5303181,42.5207674 C27.628372,42.5262274 27.7268468,42.5295874 27.8253215,42.5329474 C27.9574629,42.5375674 28.0896042,42.5421874 28.2213247,42.5430274 C28.3366328,42.5438674 28.45152,42.5409274 28.5664072,42.5388274 C28.6556236,42.5371474 28.7444193,42.5388274 28.8336357,42.5354674 C28.8618315,42.5346274 28.8896064,42.5312674 28.918223,42.5300074 C28.9405271,42.5295874 28.9636729,42.5295874 28.9863978,42.5287474 C29.0920267,42.5241274 29.1972348,42.5127874 29.3024429,42.5060674 C29.9454746,42.4657474 30.5834564,42.3708274 31.2159674,42.2456674 C31.2391131,42.2410474 31.2626797,42.2364274 31.2866672,42.2313874 C31.3316962,42.2217274 31.3767253,42.2087074 31.4217544,42.1986274 C31.4432168,42.1940074 31.4642584,42.1881274 31.4853,42.1830874 C31.6317497,42.1490674 31.7786201,42.1158874 31.9233865,42.0776674 C31.9759905,42.0638074 32.0285945,42.0491074 32.0811986,42.0344074 C32.0912985,42.0318874 32.1009777,42.0285274 32.1110777,42.0255874 C33.7300195,41.5913074 35.2719491,40.8789874 36.6299749,39.8806474 L36.6131416,39.8617474 C36.847966,39.6937474 37.0768988,39.5169274 37.3016233,39.3350674 C37.3184565,39.3338074 37.3336065,39.3300274 37.3508606,39.3287674 L37.6079892,39.0742474 C38.1201421,38.6345074 38.6019951,38.1607474 39.0455523,37.6521274 L39.2281935,37.4715274 C39.1646479,37.3757674 39.104048,37.2783274 39.0451315,37.1783674 C38.2905792,36.8448874 37.5789517,36.4374874 36.9514908,35.9347474 C36.8942576,35.8889674 36.8437577,35.8389874 36.7957828,35.7877474 L35.8678476,36.7058674 C35.8606935,36.7054474 35.8531185,36.7046074 35.8459643,36.7046074 C34.9819956,37.4866474 33.9985105,38.1359674 32.9325423,38.6118274 L32.9026632,38.6248474 C32.602189,38.7584074 32.2954022,38.8785274 31.982303,38.9831074 C31.8345908,39.0343474 31.6851954,39.0780274 31.5353791,39.1229674 C31.3826169,39.1683274 31.229434,39.2132674 31.0745677,39.2519074 C30.9895596,39.2737474 30.9037098,39.2930674 30.81786,39.3123874 C30.7307477,39.3321274 30.6432146,39.3476674 30.5556815,39.3653074 C30.4092318,39.3951274 30.2623614,39.4257874 30.1142284,39.4493074 C30.1095992,39.4497274 30.1049701,39.4505674 30.1003409,39.4514074 C29.952208,39.4749274 29.8028125,39.4908874 29.6538379,39.5085274 C29.5158049,39.5236474 29.3777719,39.5404474 29.239318,39.5517874 C29.071406,39.5648074 28.903073,39.5719474 28.7343193,39.5782474 C28.318537,39.5929474 27.6397345,39.5656474 27.224373,39.5341474 C27.1831314,39.5307874 27.141469,39.5274274 27.1002275,39.5223874 L27.0669817,39.5186074 C26.8645614,39.4955074 26.6629827,39.4640074 26.4622457,39.4295674 C26.3402043,39.4094074 26.2185838,39.3892474 26.0973841,39.3640474 C25.944622,39.3333874 25.7943848,39.2939074 25.6428852,39.2573674 C25.4753939,39.2153674 25.3079027,39.1725274 25.1416739,39.1225474 C25.1307323,39.1191874 25.1193698,39.1158274 25.1084282,39.1124674 C25.0171076,39.0847474 24.9270495,39.0536674 24.8365705,39.0234274 C24.6514043,38.9608474 24.3513509,38.8495474 24.1687097,38.7802474 C24.1304139,38.7655474 24.092539,38.7504274 24.0546641,38.7344674 C23.5197862,38.5114474 23.0017417,38.2476874 22.5072637,37.9452874 C22.468968,37.9217674 22.4310931,37.8978274 22.3927973,37.8734674 C22.1861687,37.7415874 21.9824859,37.6046674 21.7842738,37.4606074 C21.7253573,37.4181874 21.6655991,37.3766074 21.6083659,37.3329274 C21.3827998,37.1632474 21.1631254,36.9868474 20.9518675,36.8003674 C20.9261968,36.7772674 20.9017885,36.7524874 20.8756969,36.7289674 C20.6779057,36.5504674 20.4855854,36.3656674 20.30084,36.1724674 C20.2242485,36.0935074 20.1489195,36.0128674 20.0744322,35.9318074 C20.0214073,35.8751074 19.9683825,35.8188274 19.9170409,35.7608674 C19.3055716,35.0640874 18.7786895,34.2938074 18.3532281,33.4714474 C18.305674,33.3777874 18.2610658,33.2828674 18.2160368,33.1879474 C18.1718494,33.0959674 18.1268203,33.0035674 18.0851579,32.9099074 C18.0165623,32.7557674 17.9521749,32.6003674 17.8911542,32.4437074 C17.8764251,32.4067474 17.8612751,32.3706274 17.8473877,32.3336674 C17.7817378,32.1602074 17.7202963,31.9854874 17.663484,31.8090874 C17.653384,31.7792674 17.6441257,31.7494474 17.6344465,31.7200474 C17.5822633,31.5541474 17.5347093,31.3869874 17.4896802,31.2189874 C17.4699011,31.1412874 17.4505428,31.0631674 17.432447,30.9846274 C17.4046721,30.8729074 17.3790013,30.7607674 17.3550139,30.6482074 C17.3137723,30.4419874 17.2754766,30.2345074 17.2464391,30.0249274 C17.2123517,29.8149274 17.1854185,29.6036674 17.1643768,29.3919874 C17.1643768,29.3898874 17.163956,29.3882074 17.163956,29.3861074 C17.1475436,29.2214674 17.1387061,29.0568274 17.1302894,28.8917674 C17.1269228,28.8270874 17.1218728,28.7619874 17.1201895,28.6968874 C17.1168228,28.5843274 17.1180853,28.4721874 17.1176645,28.3600474 C17.1180853,28.2474874 17.1168228,28.1353474 17.1201895,28.0227874 C17.1218728,27.9581074 17.1269228,27.8930074 17.1302894,27.8279074 C17.1387061,27.6632674 17.1475436,27.4982074 17.163956,27.3335674 C17.163956,27.3314674 17.1643768,27.3297874 17.1643768,27.3276874 C17.1854185,27.1160074 17.2123517,26.9051674 17.2464391,26.6947474 C17.2754766,26.4855874 17.3137723,26.2781074 17.3550139,26.0710474 C17.3790013,25.9589074 17.4046721,25.8467674 17.432447,25.7350474 C17.4505428,25.6569274 17.4699011,25.5788074 17.4896802,25.5011074 C17.5347093,25.3331074 17.5822633,25.1659474 17.6344465,25.0000474 C17.6441257,24.9702274 17.653384,24.9408274 17.663484,24.9110074 C17.7202963,24.7346074 17.7817378,24.5594674 17.8473877,24.3864274 C17.8612751,24.3494674 17.8764251,24.3129274 17.8911542,24.2763874 C17.9521749,24.1193074 18.0165623,23.9639074 18.0851579,23.8097674 C18.1268203,23.7165274 18.1718494,23.6241274 18.2160368,23.5317274 C18.2610658,23.4372274 18.305674,23.3418874 18.3532281,23.2486474 C18.7786895,22.4262874 19.3055716,21.6555874 19.9170409,20.9588074 C19.9683825,20.9008474 20.0214073,20.8449874 20.0744322,20.7878674 C20.1489195,20.7068074 20.2242485,20.6265874 20.30084,20.5472074 C20.4855854,20.3544274 20.6779057,20.1692074 20.8756969,19.9907074 C20.9017885,19.9676074 20.9261968,19.9424074 20.9518675,19.9197274 C21.1631254,19.7332474 21.3827998,19.5564274 21.6083659,19.3867474 C21.6655991,19.3430674 21.7253573,19.3019074 21.7842738,19.2590674 C21.9824859,19.1150074 22.1861687,18.9780874 22.3932182,18.8462074 C22.4310931,18.8222674 22.468968,18.7979074 22.5072637,18.7743874 C23.0017417,18.4719874 23.5197862,18.2082274 24.0546641,17.9852074 C24.1371472,17.9499274 24.2225762,17.9205274 24.305901,17.8873474 C24.516738,17.8054474 24.7284166,17.7264874 24.9434619,17.6571874 C25.0095326,17.6361874 25.0756033,17.6172874 25.1416739,17.5971274 C25.3668192,17.5295074 25.5940687,17.4694474 25.8230014,17.4161074 C25.9126387,17.3951074 26.002276,17.3749474 26.0927549,17.3564674 C26.1668214,17.3409274 26.2413087,17.3295874 26.3162169,17.3165674 C26.4517249,17.2926274 26.5872329,17.2674274 26.7235826,17.2485274 C26.8035407,17.2355074 26.8834988,17.2233274 26.9638778,17.2128274 C27.9023338,17.1023674 28.8534148,17.1107674 29.7906084,17.2355074 C31.3203338,17.4576874 32.8033468,17.9965474 34.1201311,18.8054674 C35.4659528,19.6324474 37.1976777,19.4573074 38.3128833,18.3396874 C38.767803,17.8835674 39.2231435,17.4270274 39.6789049,16.9709074 C41.8003205,14.8469674 41.3188884,11.2815874 38.7017323,9.80654743 C35.6473315,8.08496743 32.1737817,7.10930743 28.6552028,7.10006743 C23.6855942,6.99086743 18.7168272,8.76788743 14.9112407,11.9552674 C10.8405299,15.3001474 8.14425731,20.2179274 7.4183216,25.4246674 C6.68733589,25.8660874 6.02915417,26.4910474 5.76192566,27.3226474 C5.22999363,28.8375874 5.99254176,30.5705074 7.41074661,31.2857674 C8.1493073,36.5382874 10.8792464,41.5052074 15.0130821,44.8521874 C18.6755856,47.8774474 23.3969032,49.6200274 28.1544124,49.6250674 C32.2629981,49.6947874 36.3783172,48.4839274 39.8139921,46.2381874 C40.9140477,45.5191474 42.3659192,45.6573274 43.2934336,46.5872074 C43.3031127,46.5968674 43.3132127,46.6069474 43.3228918,46.6166074 C43.9894902,47.2844074 43.9133195,48.3923674 43.1511922,48.9501274 C37.1909444,53.3122474 29.264568,54.8683474 22.0952689,53.0161474 C15.7024054,51.4260274 10.0464193,47.2012474 6.63851934,41.5824874 C4.17622955,37.5538474 2.85734112,32.8250674 2.94739924,28.1030074 C2.94234925,21.2897674 5.91721278,14.5655674 10.8813506,9.90188743 C15.4696852,5.50994743 21.7792239,2.92862743 28.150204,2.96012743 C33.0217588,2.89460743 37.9008885,4.33184743 41.9737035,6.99590743 C41.7725456,8.90354743 43.4386207,10.7528074 45.3866534,10.5953074 C47.5261648,10.5759874 49.1021818,8.13032743 48.2495756,6.17396743 C47.608648,4.37804743 45.2890203,3.60020743 43.6473535,4.51874743 C37.7746388,0.703467433 30.46899,-0.782492567 23.5643945,0.393087433 C17.1938351,1.44266743 11.2436872,4.79258743 7.01263926,9.65492743 C2.50510449,14.7621274 -0.0623933782,21.5417674 0.00115229916,28.3529074 C-0.0548183968,34.5218674 2.03377231,40.6710874 5.78380894,45.5699674 C9.86167393,50.9535274 15.9288132,54.8024074 22.5611303,56.1451474 C27.756305,57.1972474 33.2599498,56.8116874 38.2240877,54.9284074" id="Fill-32" fill="#092533"></path>
                    <path d="M19.5550455,62.0599684 C19.5528274,62.0660576 19.5506096,62.0721466 19.5483918,62.0782354 C19.3005216,62.0177554 19.0522305,61.9576954 18.805202,61.8921754 C18.4651542,61.8013162 18.1287987,61.7048529 17.7952804,61.6039342 C17.3446599,61.4736866 16.8997638,61.334455 16.4585284,61.1893288 C15.86354,61.8846596 14.9792182,62.3264554 13.9913013,62.3264554 C12.1989765,62.3264554 10.7462634,60.8766154 10.7462634,59.0878354 C10.7462634,57.2990554 12.1989765,55.8487954 13.9913013,55.8487954 C15.5243934,55.8487954 16.8058277,56.9113954 17.1454394,58.3377154 C17.6217543,58.503272 18.1023629,58.6616354 18.5893017,58.8093875 C18.7759941,58.8632693 18.963668,58.9154887 19.1524307,58.9658674 C24.858075,60.4879474 30.8578812,60.4589674 36.5054506,58.9448674 C36.5054506,58.9528474 36.5058715,58.9604074 36.5062923,58.9679674 C37.9312305,58.6088674 39.3422812,58.1544274 40.7428111,57.5975074 C44.5702808,56.0750074 48.0594014,53.8603474 51.0494149,51.1047274 C52.2294287,50.0169274 52.2635161,48.1655674 51.1264272,47.0336674 L48.5458836,44.4649474 L48.5437794,44.4666274 L43.0561262,39.0074674 C41.6021506,37.5609874 39.2627439,37.5324274 37.7637392,38.9335474 C37.7022977,38.9910874 37.6496937,39.0389674 37.6080313,39.0742474 L37.3509027,39.3287674 C37.3336486,39.3300274 37.3184986,39.3338074 37.3012445,39.3350674 C37.0769409,39.5169274 36.8480081,39.6937474 36.6131837,39.8617474 L36.630017,39.8806474 C35.2719912,40.8789874 33.7300616,41.5913074 32.1106989,42.0255874 C32.1010198,42.0285274 32.0913406,42.0318874 32.0812407,42.0344074 C32.0286366,42.0491074 31.9760326,42.0638074 31.9234285,42.0776674 C31.7782414,42.1158874 31.6317918,42.1490674 31.4853421,42.1830874 C31.4638797,42.1881274 31.4432589,42.1940074 31.4217964,42.1986274 C31.3763465,42.2087074 31.3317383,42.2217274 31.2862884,42.2313874 C31.2614593,42.2364274 31.2366302,42.2414674 31.212222,42.2460874 C30.5632985,42.3754474 29.907221,42.4602874 29.2477768,42.5098474 C29.1606645,42.5165674 29.0735522,42.5249674 28.9864399,42.5287474 C28.963715,42.5300074 28.94099,42.5295874 28.9182651,42.5304274 C28.8896485,42.5312674 28.8618736,42.5346274 28.833257,42.5354674 C28.7440405,42.5388274 28.6556657,42.5371474 28.5664493,42.5388274 C28.4515621,42.5409274 28.3366748,42.5438674 28.2217876,42.5430274 C28.0896463,42.5421874 27.9570841,42.5375674 27.8253636,42.5329474 C27.7268888,42.5295874 27.6288349,42.5262274 27.5303602,42.5207674 C27.3914855,42.5127874 27.2526108,42.5018674 27.1137362,42.4896874 C27.0952196,42.4880074 27.0762821,42.4859074 27.0577655,42.4842274 C25.5368775,42.3645274 24.0357687,42.0104674 22.6339763,41.4056674 C19.2967762,39.9898474 16.5554746,37.2388474 15.151578,33.9036274 C13.7817689,30.7112074 13.6550984,27.0122674 14.7993414,23.7354274 C16.0572091,20.0461474 18.915923,16.9410874 22.4934183,15.3799474 C24.0521812,14.6789674 25.7367729,14.2946674 27.4381979,14.2077274 C27.6524015,14.1942874 27.867026,14.1921874 28.0816505,14.1888274 C28.0904879,14.1888274 28.0993254,14.1879874 28.1085837,14.1879874 C28.1414087,14.1875674 28.1738127,14.1850474 28.2062168,14.1846274 C28.2466167,14.1842074 28.2870166,14.1850474 28.3269957,14.1846274 C28.4444079,14.1850474 28.5613993,14.1812674 28.6783907,14.1846274 C28.6964865,14.1850474 28.7150031,14.1842074 28.7330989,14.1846274 C28.7318364,14.1854674 28.7309947,14.1867274 28.730153,14.1879874 C29.0533522,14.1980674 29.3761306,14.2169674 29.6980673,14.2505674 C32.1494155,14.4819874 34.5405846,15.3329074 36.5437464,16.7806474 L38.3335461,18.3224674 L38.3150295,18.3409474 C37.1994031,19.4585674 35.4672573,19.6332874 34.1214356,18.8063074 C32.8042305,17.9965474 31.3207967,17.4576874 29.7906504,17.2355074 C28.8534569,17.1111874 27.9019551,17.1023674 26.9639199,17.2128274 C26.8835409,17.2233274 26.8035828,17.2355074 26.7236246,17.2485274 C26.5868541,17.2674274 26.451767,17.2926274 26.316259,17.3165674 C26.2413508,17.3295874 26.1664427,17.3409274 26.092797,17.3564674 C26.0023181,17.3749474 25.9126808,17.3951074 25.8230435,17.4161074 C25.5941107,17.4694474 25.3668613,17.5299274 25.141716,17.5971274 C25.0756453,17.6172874 25.0091538,17.6361874 24.943504,17.6571874 C24.7284587,17.7264874 24.51678,17.8054474 24.3059431,17.8873474 C24.2221974,17.9205274 24.1371893,17.9499274 24.0547062,17.9852074 C23.5198283,18.2082274 23.0017838,18.4719874 22.5073058,18.7743874 C22.4694309,18.7974874 22.4319768,18.8214274 22.3949436,18.8453674 C22.1866316,18.9776674 21.9825279,19.1154274 21.7826326,19.2603274 C21.7245577,19.3023274 21.6652204,19.3434874 21.6079872,19.3867474 C21.3828419,19.5564274 21.1631674,19.7332474 20.9519096,19.9197274 C20.925818,19.9424074 20.9022514,19.9676074 20.875739,19.9907074 C20.6779478,20.1692074 20.4852066,20.3544274 20.3008821,20.5472074 C20.2238698,20.6265874 20.1489616,20.7068074 20.0744743,20.7878674 C20.0218702,20.8449874 19.9684245,20.9008474 19.917083,20.9588074 C19.3056137,21.6555874 18.7787316,22.4262874 18.3532702,23.2486474 C18.3057161,23.3418874 18.2611079,23.4372274 18.2160788,23.5317274 C18.1714706,23.6241274 18.1268624,23.7165274 18.0847792,23.8097674 C18.0166043,23.9639074 17.9526378,24.1193074 17.8907755,24.2763874 C17.8764672,24.3129274 17.8613172,24.3494674 17.8474298,24.3864274 C17.7817799,24.5594674 17.7203384,24.7346074 17.6631052,24.9110074 C17.6534261,24.9408274 17.6441677,24.9702274 17.6344886,25.0000474 C17.5823054,25.1659474 17.5347514,25.3331074 17.4897223,25.5011074 C17.4695223,25.5788074 17.4505849,25.6569274 17.4324891,25.7350474 C17.4047142,25.8467674 17.3790434,25.9589074 17.355056,26.0714674 C17.3133936,26.2781074 17.2755187,26.4855874 17.2464812,26.6947474 C17.2123938,26.9051674 17.1854605,27.1160074 17.1644189,27.3276874 C17.1644189,27.3297874 17.1639981,27.3314674 17.1639981,27.3335674 C17.1475856,27.4982074 17.1387482,27.6632674 17.1303315,27.8279074 C17.1269649,27.8930074 17.1219149,27.9581074 17.1198107,28.0227874 C17.1168649,28.1353474 17.1181274,28.2474874 17.1177065,28.3600474 C17.1181274,28.4721874 17.1168649,28.5843274 17.1198107,28.6968874 C17.1219149,28.7619874 17.1269649,28.8270874 17.1303315,28.8917674 C17.1387482,29.0568274 17.1475856,29.2214674 17.1639981,29.3861074 C17.1639981,29.3882074 17.1644189,29.3898874 17.1644189,29.3919874 C17.1854605,29.6036674 17.2123938,29.8149274 17.2464812,30.0249274 C17.2755187,30.2345074 17.3133936,30.4419874 17.355056,30.6482074 C17.3790434,30.7611874 17.4047142,30.8729074 17.4324891,30.9846274 C17.4505849,31.0631674 17.4695223,31.1412874 17.4897223,31.2189874 C17.5347514,31.3869874 17.5823054,31.5541474 17.6344886,31.7200474 C17.6441677,31.7498674 17.6534261,31.7792674 17.6631052,31.8090874 C17.7203384,31.9854874 17.7817799,32.1602074 17.8474298,32.3336674 C17.8613172,32.3706274 17.8764672,32.4067474 17.8907755,32.4437074 C17.9526378,32.6003674 18.0166043,32.7561874 18.0847792,32.9099074 C18.1268624,33.0035674 18.1714706,33.0959674 18.2160788,33.1879474 C18.2611079,33.2828674 18.3057161,33.3777874 18.3532702,33.4714474 C18.7787316,34.2938074 19.3056137,35.0640874 19.917083,35.7608674 C19.9684245,35.8188274 20.0218702,35.8751074 20.0744743,35.9318074 C20.1489616,36.0128674 20.2238698,36.0935074 20.3008821,36.1724674 C20.4852066,36.3656674 20.6779478,36.5504674 20.875739,36.7289674 C20.9022514,36.7524874 20.925818,36.7772674 20.9519096,36.8003674 C21.1631674,36.9868474 21.3828419,37.1632474 21.6079872,37.3329274 C21.6643787,37.3757674 21.7228744,37.4160874 21.7801076,37.4576674 C21.9804238,37.6029874 22.1857899,37.7415874 22.3949436,37.8747274 C22.4319768,37.8982474 22.4694309,37.9221874 22.5073058,37.9452874 C23.0017838,38.2476874 23.5198283,38.5114474 24.0547062,38.7344674 C24.0925811,38.7504274 24.130456,38.7655474 24.1683309,38.7798274 C24.3505513,38.8495474 24.6497631,38.9604274 24.8340876,39.0225874 C24.9254082,39.0532474 25.016308,39.0847474 25.1084703,39.1124674 C25.1194119,39.1158274 25.1307744,39.1191874 25.141716,39.1225474 C25.3075239,39.1725274 25.475436,39.2153674 25.6429273,39.2573674 C25.7944269,39.2939074 25.944664,39.3333874 26.0970053,39.3640474 C26.2186259,39.3892474 26.3402464,39.4094074 26.4622878,39.4295674 C26.6630248,39.4640074 26.8646035,39.4955074 27.0670238,39.5186074 L27.1002695,39.5223874 C27.1410903,39.5274274 27.181911,39.5307874 27.2223109,39.5341474 C27.6380932,39.5656474 28.3168957,39.5929474 28.7330989,39.5782474 C28.9018526,39.5723674 29.0710272,39.5648074 29.2393601,39.5517874 C29.377814,39.5404474 29.5154261,39.5236474 29.6538799,39.5085274 C29.8028546,39.4908874 29.95225,39.4749274 30.100383,39.4514074 C30.1050122,39.4505674 30.1096413,39.4501474 30.1138496,39.4493074 C30.2624034,39.4257874 30.4092739,39.3951274 30.5557236,39.3653074 C30.6432567,39.3476674 30.7307898,39.3321274 30.8179021,39.3123874 C30.9037519,39.2930674 30.9896017,39.2737474 31.0746098,39.2519074 C31.2294761,39.2132674 31.382659,39.1683274 31.5354212,39.1229674 C31.6852375,39.0780274 31.8346329,39.0343474 31.9823451,38.9831074 C32.2954443,38.8785274 32.6018102,38.7584074 32.9027053,38.6248474 C32.9128053,38.6206474 32.9224844,38.6164474 32.9330052,38.6118274 C33.9985526,38.1359674 34.9820377,37.4866474 35.8481106,36.7046074 C35.8481106,36.7046074 35.8506356,36.7050274 35.8527397,36.7050274 L36.1885639,36.3694474 C38.4871499,34.0678474 42.2195116,34.0619674 44.5252518,36.3560074 L50.605016,42.4035874 L50.6008077,42.4077874 L55.0254385,46.8119074 C56.1894607,47.9706874 56.2584771,49.8304474 55.1840923,51.0719674 L55.182409,51.0702874 C51.5026513,55.0817074 46.94125,58.2594274 41.8205626,60.2960074 C39.7715301,61.1112274 37.7119768,61.7252674 35.6204403,62.1528274 C35.6200195,62.1503074 35.6191778,62.1477874 35.618757,62.1456874 C30.3517855,63.300587 24.8537288,63.2881143 19.5550455,62.0599684 Z" id="Combined-Shape" fill="#1CB98A"></path>
                </g>
            </g>
        </g>
    </g>
</svg>