<svg width="159" height="159" xmlns="http://www.w3.org/2000/svg" xmlns:xlink="http://www.w3.org/1999/xlink" xml:space="preserve" overflow="hidden"><defs><clipPath id="clip0"><rect x="44" y="522" width="159" height="159"/></clipPath></defs><g clip-path="url(#clip0)" transform="translate(-44 -522)"><path d="M105.281 609.934 145.031 609.934C147.775 609.934 150 612.158 150 614.902 150 617.647 147.775 619.871 145.031 619.871L115.219 619.871C114.304 619.871 113.562 620.613 113.562 621.527 113.562 622.442 114.304 623.184 115.219 623.184L145.031 623.184C149.605 623.184 153.312 619.476 153.312 614.902 153.312 610.329 149.605 606.621 145.031 606.621L105.281 606.621C102.294 606.646 99.3643 607.445 96.7781 608.94L49.9012 631.478C49.0599 631.837 48.6688 632.81 49.0278 633.651 49.3868 634.493 50.3598 634.884 51.2012 634.525 51.2475 634.505 51.2929 634.483 51.3372 634.459L98.3134 611.868C100.425 610.621 102.829 609.954 105.281 609.934Z" fill="#274166"/><path d="M189.75 593.202C188.226 593.17 186.727 593.592 185.444 594.415L157.122 610.646C156.327 611.103 156.053 612.118 156.511 612.913 156.968 613.708 157.983 613.982 158.778 613.524L187.196 597.23C187.955 596.739 188.846 596.49 189.75 596.515 192.494 596.515 194.719 598.739 194.719 601.483 194.653 602.952 194.027 604.34 192.97 605.362L147.545 638.572C146.678 639.228 145.622 639.586 144.534 639.594L113.562 639.594C96.6224 639.594 82.8523 644.773 72.6382 654.997 71.9341 655.581 71.8366 656.625 72.4206 657.329 73.0044 658.033 74.0485 658.131 74.7528 657.547 74.8324 657.481 74.9058 657.407 74.9719 657.327 84.5467 647.756 97.5283 642.906 113.562 642.906L144.534 642.906C146.318 642.896 148.052 642.315 149.483 641.25L195.032 607.959 195.227 607.794C196.964 606.148 197.974 603.877 198.031 601.485 198.027 596.913 194.322 593.208 189.75 593.202Z" fill="#274166"/><path d="M117.334 595.231C118.354 595.231 119.291 595.215 120.181 595.203L120.317 595.369C122.113 597.201 123.235 599.589 123.5 602.141 123.516 602.203 123.536 602.264 123.56 602.323 123.582 602.414 123.611 602.502 123.647 602.588 123.697 602.693 123.757 602.793 123.828 602.885 123.877 602.955 123.932 603.021 123.994 603.082 124.081 603.165 124.177 603.237 124.282 603.297 124.348 603.345 124.419 603.387 124.492 603.423 124.619 603.473 124.751 603.507 124.886 603.524 124.945 603.542 125.005 603.557 125.065 603.569L125.148 603.569C125.223 603.569 125.297 603.564 125.372 603.554 125.434 603.536 125.495 603.514 125.555 603.489 125.67 603.464 125.781 603.425 125.887 603.375 125.973 603.327 126.055 603.272 126.132 603.209 126.301 603.089 126.442 602.934 126.546 602.754 126.603 602.662 126.651 602.565 126.688 602.464 126.723 602.367 126.747 602.266 126.761 602.164 126.78 602.105 126.795 602.045 126.806 601.984 126.914 595.687 130.078 589.837 135.289 586.301 137.254 586.395 139.663 586.537 142.31 586.537 149.689 586.537 158.894 585.419 165.332 578.965 176.263 567.703 173.613 547.165 173.613 547.165 171.78 546.964 169.937 546.869 168.093 546.882 161.224 546.882 149.506 548.084 142.144 555.446 134.526 563.259 133.504 576.052 133.482 583.518 129.292 586.412 126.161 590.593 124.563 595.428 124.04 594.663 123.473 593.929 122.866 593.229 122.675 593 122.481 592.767 122.289 592.53 122.697 586.413 123.308 576.464 116.636 568.862 111.32 562.8 102.471 561.667 96.5959 561.667 94.6011 561.655 92.6081 561.79 90.6334 562.071 90.6334 562.071 88.3858 579.487 97.424 588.074 104.261 594.592 111.688 595.231 117.334 595.231ZM144.475 557.8C151.082 551.193 162.101 550.206 168.081 550.206 168.992 550.206 169.814 550.229 170.516 550.261 170.773 555.849 170.468 568.917 162.975 576.636 158.48 581.14 151.908 583.237 142.293 583.237 141.255 583.237 140.261 583.213 139.312 583.18 145.212 576.297 150.026 571.918 154.32 569.541 155.12 569.098 155.409 568.09 154.966 567.289 154.523 566.489 153.515 566.199 152.715 566.643 148.094 569.201 143.012 573.789 136.878 580.931 137.277 570.376 139.812 562.578 144.475 557.798ZM93.7256 565.087C94.5372 565.031 95.5077 564.991 96.5843 564.991 101.151 564.991 109.503 565.778 114.141 571.058 119.109 576.726 119.397 584.051 119.129 589.737 115.869 584.435 111.579 579.84 106.512 576.226 105.767 575.694 104.733 575.867 104.201 576.612 103.67 577.356 103.843 578.391 104.587 578.922 109.429 582.391 113.51 586.811 116.582 591.914 111.05 591.844 105.215 590.92 99.6997 585.684 93.8945 580.171 93.5401 569.879 93.7256 565.086Z" fill="#274166"/></g></svg>