<svg width="163" height="163" xmlns="http://www.w3.org/2000/svg" xmlns:xlink="http://www.w3.org/1999/xlink" xml:space="preserve" overflow="hidden"><defs><clipPath id="clip0"><rect x="725" y="175" width="163" height="163"/></clipPath></defs><g clip-path="url(#clip0)" transform="translate(-725 -175)"><path d="M806.5 252.956C810.251 252.956 813.292 249.916 813.292 246.165 813.292 242.414 810.251 239.373 806.5 239.373 802.749 239.373 799.708 242.414 799.708 246.165 799.669 249.876 802.645 252.917 806.357 252.956 806.404 252.957 806.452 252.957 806.5 252.956ZM806.5 242.769C808.375 242.769 809.896 244.289 809.896 246.165 809.896 248.04 808.375 249.561 806.5 249.561 804.625 249.561 803.104 248.04 803.104 246.165 803.062 244.33 804.514 242.808 806.349 242.766 806.399 242.765 806.45 242.764 806.5 242.766Z" fill="#274166"/><path d="M828.573 249.561 828.573 241.935 829.279 242.642 838.125 233.705 806.5 203.355 774.185 234.223 783.194 243.173 784.427 241.939 784.427 249.561 743.677 249.561 743.677 310.701 794.615 310.701 794.615 292.156C794.615 285.592 799.936 280.271 806.5 280.271 813.064 280.271 818.385 285.592 818.385 292.156L818.385 310.701 869.323 310.701 869.323 249.561ZM783.186 238.378 779.051 234.271 806.5 208.065 833.288 233.768 829.272 237.823 828.573 237.132 828.573 237.12 806.5 215.047 784.427 237.12 784.427 237.144ZM865.927 307.305 821.781 307.305 821.781 292.156C821.781 283.717 814.94 276.875 806.5 276.875 798.06 276.875 791.219 283.717 791.219 292.156L791.219 307.305 747.073 307.305 747.073 252.956 787.823 252.956 787.823 238.543 790.1 236.266 790.1 236.266 806.5 219.844 821.408 234.755 821.408 234.755 825.177 238.539 825.177 252.956 865.927 252.956Z" fill="#274166"/><path d="M757.26 263.292 760.656 263.292 760.656 276.875 757.26 276.875Z" fill="#274166"/><path d="M767.448 263.292 770.844 263.292 770.844 276.875 767.448 276.875Z" fill="#274166"/><path d="M757.26 283.667 760.656 283.667 760.656 297.25 757.26 297.25Z" fill="#274166"/><path d="M767.448 283.667 770.844 283.667 770.844 297.25 767.448 297.25Z" fill="#274166"/><path d="M777.635 263.292 781.031 263.292 781.031 276.875 777.635 276.875Z" fill="#274166"/><path d="M777.635 283.667 781.031 283.667 781.031 297.25 777.635 297.25Z" fill="#274166"/><path d="M831.969 263.292 835.365 263.292 835.365 276.875 831.969 276.875Z" fill="#274166"/><path d="M842.156 263.292 845.552 263.292 845.552 276.875 842.156 276.875Z" fill="#274166"/><path d="M831.969 283.667 835.365 283.667 835.365 297.25 831.969 297.25Z" fill="#274166"/><path d="M842.156 283.667 845.552 283.667 845.552 297.25 842.156 297.25Z" fill="#274166"/><path d="M852.344 263.292 855.74 263.292 855.74 276.875 852.344 276.875Z" fill="#274166"/><path d="M852.344 283.667 855.74 283.667 855.74 297.25 852.344 297.25Z" fill="#274166"/><path d="M794.615 263.292 818.385 263.292 818.385 266.688 794.615 266.688Z" fill="#274166"/></g></svg>