<svg width="154" height="154" xmlns="http://www.w3.org/2000/svg" xmlns:xlink="http://www.w3.org/1999/xlink" xml:space="preserve" overflow="hidden"><defs><clipPath id="clip0"><rect x="547" y="184" width="154" height="154"/></clipPath></defs><g clip-path="url(#clip0)" transform="translate(-547 -184)"><path d="M661.233 243.851C663.312 243.047 665.516 242.613 667.746 242.568 662.799 231.817 654.085 223.251 643.25 218.49 643.172 220.691 642.711 222.863 641.886 224.906 650.252 228.909 657.055 235.572 661.233 243.851Z" fill="#274166"/><path d="M580.254 242.568C582.484 242.613 584.688 243.047 586.767 243.851 590.957 235.564 597.778 228.9 606.162 224.906 605.337 222.863 604.876 220.691 604.798 218.49 593.946 223.241 585.213 231.809 580.254 242.568Z" fill="#274166"/><path d="M661.89 279.993C657.864 288.725 650.961 295.81 642.336 300.061 642.943 301.954 643.252 303.929 643.25 305.917 643.25 306.189 643.25 306.446 643.25 306.719 654.651 301.724 663.693 292.534 668.5 281.052L668.115 281.052C665.995 281.048 663.892 280.69 661.89 279.993Z" fill="#274166"/><path d="M586.11 279.993C584.108 280.69 582.005 281.048 579.885 281.052L579.549 281.052C584.344 292.525 593.367 301.714 604.75 306.719 604.75 306.446 604.75 306.189 604.75 305.917 604.748 303.929 605.057 301.954 605.664 300.061 597.039 295.81 590.136 288.725 586.11 279.993Z" fill="#274166"/><path d="M592.719 261.802C592.719 268.89 586.973 274.635 579.885 274.635 572.798 274.635 567.052 268.89 567.052 261.802 567.052 254.714 572.798 248.969 579.885 248.969 586.973 248.969 592.719 254.714 592.719 261.802Z" fill="#274166"/><path d="M680.948 261.802C680.948 268.89 675.202 274.635 668.115 274.635 661.027 274.635 655.281 268.89 655.281 261.802 655.281 254.714 661.027 248.969 668.115 248.969 675.202 248.969 680.948 254.714 680.948 261.802Z" fill="#274166"/><path d="M636.833 305.917C636.833 313.004 631.088 318.75 624 318.75 616.912 318.75 611.167 313.004 611.167 305.917 611.167 298.829 616.912 293.083 624 293.083 631.088 293.083 636.833 298.829 636.833 305.917Z" fill="#274166"/><path d="M636.833 217.688C636.833 224.775 631.088 230.521 624 230.521 616.912 230.521 611.167 224.775 611.167 217.688 611.167 210.6 616.912 204.854 624 204.854 631.088 204.854 636.833 210.6 636.833 217.688Z" fill="#274166"/></g></svg>