<svg width="129" height="130" xmlns="http://www.w3.org/2000/svg" xmlns:xlink="http://www.w3.org/1999/xlink" xml:space="preserve" overflow="hidden"><defs><clipPath id="clip0"><rect x="384" y="208" width="129" height="130"/></clipPath></defs><g clip-path="url(#clip0)" transform="translate(-384 -208)"><path d="M80.8817 66.9873 78.9816 68.8887 114.402 104.229C116.247 107.17 115.889 110.984 113.528 113.529 112.174 114.874 110.344 115.631 108.435 115.636 106.977 115.642 105.554 115.183 104.373 114.328 104.373 114.328 103.927 114.024 103.646 113.79 103.567 113.726 103.352 113.521 103.352 113.521L68.8067 79.0622 66.9067 80.9623 101.512 115.413 102.797 116.503C104.438 117.691 106.414 118.328 108.441 118.323 111.061 118.321 113.574 117.28 115.428 115.428 118.767 111.912 119.214 106.548 116.503 102.528Z" fill="#274166" transform="matrix(1 0 0 1.00775 384 208)"/><path d="M99.9293 47.648C110.027 47.6937 118.249 39.5454 118.295 29.4479 118.305 27.1428 117.88 24.8564 117.041 22.7094L106.156 33.5938 97.5563 31.3094 95.4062 22.8438 106.291 11.9594C104.256 11.1966 102.101 10.8065 99.928 10.8078 95.3318 10.8179 90.9003 12.5193 87.4781 15.5875 82.3978 20.244 80.3264 27.3383 82.1031 33.9969L60.9014 55.1986 31.4693 25.8 28.075 19.1484 15.355 8.94803 8.94803 15.355 19.1605 28.0763 25.8 31.4693 55.2281 60.8625 13.5719 102.528C11.1667 104.853 10.1923 108.289 11.0188 111.531 11.8375 114.769 14.3655 117.297 17.6031 118.116 20.8447 118.929 24.2743 117.957 26.6062 115.562L95.1375 47.0312C96.7022 47.4393 98.3124 47.6466 99.9293 47.648ZM27.5549 29.4187 20.8886 25.9438 12.5573 15.5512 15.5566 12.552 25.9492 20.8832 29.2682 27.4125 58.9973 57.0959 57.1349 58.9584ZM93.2374 45.1312 24.7062 113.662C23.4377 114.961 21.7026 115.698 19.8875 115.71 19.3375 115.71 18.7895 115.642 18.2562 115.507 15.9851 114.924 14.2114 113.15 13.627 110.88 13.0452 108.58 13.7271 106.145 15.4182 104.482L15.4464 104.455 15.4733 104.428 84.0045 35.8969 85.093 34.8098 84.7046 33.325C83.1547 27.6397 84.919 21.5654 89.2734 17.5951 92.4468 14.7393 96.6326 13.2748 100.894 13.5289L100.904 13.5531 92.4258 22.0241 95.3404 33.501 106.963 36.5917 115.521 28.032C115.533 28.0199 115.544 28.0239 115.545 28.0414 115.88 32.3506 114.444 36.6102 111.57 39.8382 108.589 43.1158 104.36 44.9779 99.9293 44.9632 98.5401 44.9595 97.157 44.7789 95.8134 44.4257L94.3245 44.0387Z" fill="#274166" transform="matrix(1 0 0 1.00775 384 208)"/><path d="M20.0057 106.022C18.3078 106.021 16.9307 107.397 16.9299 109.095 16.9291 110.793 18.3051 112.17 20.0031 112.171 21.701 112.172 23.0781 110.796 23.0789 109.098 23.0789 109.097 23.0789 109.097 23.0789 109.096 23.0789 107.399 21.7032 106.023 20.0057 106.022Z" fill="#274166" transform="matrix(1 0 0 1.00775 384 208)"/></g></svg>