<svg width="155" height="155" xmlns="http://www.w3.org/2000/svg" xmlns:xlink="http://www.w3.org/1999/xlink" xml:space="preserve" overflow="hidden"><defs><clipPath id="clip0"><rect x="216" y="196" width="155" height="155"/></clipPath></defs><g clip-path="url(#clip0)" transform="translate(-216 -196)"><path d="M314.635 285.212 314.635 275.115 311.406 275.115 311.406 288.44 314.635 285.212Z" fill="#274166"/><path d="M321.096 278.751 321.096 252.51C321.096 251.619 320.374 250.896 319.482 250.896 318.59 250.896 317.867 251.619 317.867 252.51L317.867 281.98Z" fill="#274166"/><path d="M308.18 291.666 308.18 252.51C308.18 251.619 307.457 250.896 306.565 250.896 305.673 250.896 304.951 251.619 304.951 252.51L304.951 294.895Z" fill="#274166"/><path d="M286.096 282.795 286.096 252.51C286.096 251.619 285.373 250.896 284.481 250.896 283.589 250.896 282.866 251.619 282.866 252.51L282.866 279.566Z" fill="#274166"/><path d="M273.179 276.615 273.179 252.51C273.179 251.619 272.456 250.896 271.564 250.896 270.673 250.896 269.95 251.619 269.95 252.51L269.95 279.844Z" fill="#274166"/><path d="M226.726 275.467C227.522 275.867 228.493 275.546 228.893 274.749 229.291 273.957 228.977 272.993 228.188 272.588 227.33 272.092 226.878 271.11 227.058 270.135L231.106 247.137C231.195 246.835 231.362 246.563 231.59 246.346 233.303 245.058 235.245 244.108 237.312 243.545 238.993 243.094 240.722 242.852 242.461 242.823 244.142 242.84 245.813 243.08 247.429 243.538 249.509 244.1 251.462 245.054 253.184 246.348 253.413 246.52 253.575 246.766 253.642 247.045L258.673 273.799C258.84 274.675 259.684 275.25 260.561 275.084 261.213 274.961 261.722 274.451 261.846 273.799L266.851 247.14C266.911 246.826 267.083 246.544 267.336 246.348 269.061 245.053 271.018 244.099 273.1 243.535 274.715 243.079 276.383 242.839 278.061 242.823 279.791 242.851 281.511 243.091 283.183 243.538 285.284 244.109 287.256 245.075 288.995 246.385 289.163 246.565 289.297 246.774 289.393 247.001L293.661 273.755C293.785 274.53 294.448 275.103 295.232 275.115 296.011 275.104 296.68 274.559 296.847 273.799L301.852 247.14C301.911 246.826 302.083 246.544 302.337 246.348 304.062 245.053 306.018 244.098 308.101 243.535 309.715 243.079 311.383 242.839 313.061 242.823 314.791 242.851 316.512 243.091 318.184 243.538 320.284 244.109 322.257 245.075 323.996 246.385 324.164 246.567 324.299 246.777 324.393 247.006L328.375 271.477 331.183 268.656 327.55 246.348C327.291 245.323 326.703 244.413 325.876 243.756 323.815 242.212 321.479 241.075 318.993 240.404 317.056 239.892 315.064 239.62 313.061 239.594 311.099 239.61 309.148 239.887 307.259 240.417 304.781 241.088 302.453 242.224 300.399 243.764 299.533 244.429 298.933 245.381 298.707 246.449L295.405 263.995C295.396 264.045 295.381 264.045 295.373 263.995L292.549 246.354C292.291 245.33 291.702 244.419 290.875 243.763 288.814 242.218 286.478 241.081 283.992 240.411 282.056 239.897 280.064 239.622 278.061 239.594 276.1 239.61 274.149 239.887 272.26 240.417 269.784 241.089 267.458 242.224 265.406 243.764 264.539 244.428 263.939 245.381 263.713 246.449L260.277 264.683C260.277 264.73 260.254 264.73 260.244 264.683L256.797 246.357C256.562 245.322 255.968 244.404 255.121 243.764 253.071 242.225 250.746 241.09 248.271 240.42 246.379 239.888 244.424 239.61 242.458 239.594 240.447 239.623 238.447 239.9 236.504 240.417 234.055 241.077 231.754 242.195 229.722 243.711 228.83 244.397 228.202 245.371 227.946 246.467L223.873 269.586C223.452 271.957 224.603 274.33 226.726 275.467Z" fill="#274166"/><path d="M278.019 236.365C273.561 236.365 269.946 232.75 269.946 228.292 269.946 223.833 273.561 220.219 278.019 220.219 282.478 220.219 286.092 223.833 286.092 228.292 286.087 232.748 282.476 236.359 278.019 236.365ZM278.019 223.448C275.344 223.448 273.176 225.616 273.176 228.292 273.176 230.967 275.344 233.135 278.019 233.135 280.695 233.135 282.863 230.967 282.863 228.292 282.863 225.616 280.695 223.448 278.019 223.448Z" fill="#274166"/><path d="M242.499 236.365C238.04 236.365 234.426 232.75 234.426 228.292 234.426 223.833 238.04 220.219 242.499 220.219 246.957 220.219 250.571 223.833 250.571 228.292 250.566 232.748 246.955 236.359 242.499 236.365ZM242.499 223.448C239.823 223.448 237.655 225.616 237.655 228.292 237.655 230.967 239.823 233.135 242.499 233.135 245.174 233.135 247.342 230.967 247.342 228.292 247.342 225.616 245.174 223.448 242.499 223.448Z" fill="#274166"/><path d="M313.02 236.365C308.562 236.365 304.947 232.75 304.947 228.292 304.947 223.833 308.562 220.219 313.02 220.219 317.479 220.219 321.093 223.833 321.093 228.292 321.088 232.748 317.477 236.359 313.02 236.365ZM313.02 223.448C310.345 223.448 308.177 225.616 308.177 228.292 308.177 230.967 310.345 233.135 313.02 233.135 315.696 233.135 317.864 230.967 317.864 228.292 317.864 225.616 315.696 223.448 313.02 223.448Z" fill="#274166"/><path d="M234.43 286.444 234.43 310.671 239.124 310.671 244.113 305.68 244.113 286.444 247.342 286.444 247.342 302.446 250.571 299.217 250.571 286.444 256.733 286.444 250.576 264.258 250.576 252.51C250.576 251.619 249.853 250.896 248.962 250.896 248.07 250.896 247.347 251.619 247.347 252.51L247.347 264.479 252.491 283.208 232.517 283.208 237.66 264.692 237.66 252.504C237.66 251.612 236.937 250.889 236.045 250.889 235.153 250.889 234.43 251.612 234.43 252.504L234.43 264.252 228.271 286.444ZM237.66 286.444 240.889 286.444 240.889 307.442 237.66 307.442Z" fill="#274166"/><path d="M338.708 247.667C337.817 247.667 337.094 248.39 337.094 249.281 337.094 250.173 337.817 250.896 338.708 250.896L355.762 250.896C355.783 250.896 355.787 250.909 355.773 250.923L301.573 305.123 276.547 280.097 229.39 327.254C228.748 327.874 228.731 328.896 229.35 329.537 229.97 330.179 230.992 330.197 231.633 329.577 231.647 329.564 231.66 329.551 231.673 329.537L276.547 284.663 301.573 309.689 358.056 253.206C358.07 253.192 358.083 253.197 358.083 253.218L358.083 270.271C358.083 271.163 358.806 271.885 359.698 271.885 360.59 271.885 361.312 271.163 361.312 270.271L361.312 247.667Z" fill="#274166"/></g></svg>