<svg width="142" height="142" xmlns="http://www.w3.org/2000/svg" xmlns:xlink="http://www.w3.org/1999/xlink" xml:space="preserve" overflow="hidden"><defs><clipPath id="clip0"><rect x="53" y="196" width="142" height="142"/></clipPath></defs><g clip-path="url(#clip0)" transform="translate(-53 -196)"><path d="M78.3312 283.141C78.5826 283.141 78.8373 283.147 79.0913 283.158 88.1469 283.581 95.1512 291.254 94.7487 300.311L94.7458 300.378 94.7458 301.555 95.1384 302.239 99.6102 310.029C99.6173 310.041 99.6115 310.051 99.5974 310.051L94.7384 310.051 94.7384 313.009 94.7384 316.924 94.7384 317.004C94.7403 318.543 93.9799 319.983 92.7076 320.849 91.882 321.392 90.9106 321.671 89.9224 321.65L83.9813 321.65 83.9813 329.38 69.5406 329.38 69.5406 314.59 68.3965 313.702C64.5419 310.343 62.2145 305.564 61.9463 300.458L61.9463 300.384 61.9429 300.31C61.9204 299.815 61.9204 299.314 61.9429 298.819 62.3227 290.046 69.5501 283.132 78.3312 283.141ZM78.3312 280.182C67.9754 280.191 59.4564 288.34 58.988 298.686 58.9613 299.272 58.9613 299.858 58.988 300.445 58.962 306.54 61.7679 312.301 66.5823 316.038L66.5823 332.339 86.9396 332.339 86.9396 324.608 90.0963 324.608C94.2952 324.607 97.6983 321.203 97.6978 317.004L97.6967 316.882 97.6967 313.01 100.531 313.01C102.207 312.816 103.688 310.883 102.142 308.498L97.7043 300.766 97.7043 300.445C98.1909 289.753 89.9179 280.69 79.2256 280.203 78.9267 280.189 78.3312 280.182 78.3312 280.182Z" fill="#274166"/><path d="M103.759 286.755C104.376 286.756 104.876 287.258 104.875 287.875 104.874 287.949 104.867 288.024 104.852 288.096 104.74 288.522 104.408 288.854 103.983 288.966 103.379 289.089 102.789 288.699 102.666 288.095 102.543 287.49 102.933 286.901 103.537 286.778 103.61 286.763 103.684 286.755 103.759 286.755M103.759 283.797C101.508 283.797 99.6843 285.622 99.6846 287.872 99.6846 287.959 99.6872 288.046 99.6929 288.132 99.8945 290.145 101.486 291.737 103.499 291.939 105.745 292.082 107.682 290.378 107.825 288.132 107.968 285.886 106.264 283.949 104.018 283.806 103.932 283.8 103.845 283.797 103.759 283.797Z" fill="#274166"/><path d="M116.572 275.75C118.857 275.753 120.706 277.608 120.703 279.893 120.703 279.979 120.7 280.065 120.695 280.151 120.488 282.189 118.876 283.801 116.837 284.008 114.559 284.154 112.594 282.425 112.449 280.147 112.303 277.869 114.032 275.904 116.31 275.758 116.397 275.753 116.484 275.75 116.571 275.75M116.503 272.792C112.587 272.83 109.443 276.036 109.481 279.952 109.482 280.022 109.484 280.091 109.487 280.161 109.728 283.816 112.64 286.727 116.295 286.969 120.209 287.121 123.504 284.072 123.656 280.158 123.808 276.244 120.758 272.948 116.845 272.797 116.753 272.793 116.662 272.791 116.571 272.791Z" fill="#274166"/><path d="M136.489 204.875C142.341 204.876 147.361 209.047 148.436 214.799 148.436 214.806 148.442 214.812 148.449 214.811 148.452 214.811 148.455 214.81 148.458 214.808 150.643 213.151 153.308 212.251 156.05 212.243 162.823 212.261 168.31 217.746 168.33 224.52 168.336 225.466 168.215 226.408 167.967 227.321 167.964 227.334 167.972 227.341 167.984 227.338 168.898 227.099 169.839 226.977 170.784 226.976L170.785 226.976C170.828 226.976 171 226.976 171.043 226.976 177.824 227.05 183.261 232.607 183.186 239.388 183.113 246.113 177.642 251.528 170.917 251.533L170.785 251.532C169.1 251.486 167.439 251.114 165.896 250.436 165.89 250.432 165.882 250.434 165.878 250.44 165.876 250.442 165.876 250.445 165.876 250.448L165.876 251.532C165.857 258.304 160.372 263.79 153.6 263.811L153.569 263.811C149.697 263.81 146.063 261.948 143.802 258.806 143.79 258.789 143.779 258.793 143.777 258.813 143.181 265.124 137.887 269.949 131.547 269.958L131.529 269.958C124.741 269.957 119.237 264.459 119.228 257.671 119.238 257.23 119.278 256.79 119.346 256.354 119.348 256.336 119.338 256.33 119.323 256.342 117.495 257.759 115.301 258.628 112.997 258.846 112.607 258.883 112.22 258.901 111.837 258.901 105.556 258.891 100.309 254.114 99.7121 247.861 99.7118 247.854 99.7062 247.849 99.6994 247.848 99.6365 247.848 99.3307 247.844 99.2219 247.839 92.446 247.564 87.1758 241.849 87.4507 235.073 87.7156 228.541 93.0512 223.362 99.5878 223.292 100.533 223.294 101.474 223.416 102.389 223.655 102.401 223.658 102.409 223.651 102.406 223.638 102.166 222.723 102.044 221.782 102.043 220.836 102.062 214.064 107.547 208.579 114.319 208.559 118.418 208.565 122.24 210.632 124.489 214.059 124.498 214.073 124.509 214.071 124.514 214.055 125.966 208.765 130.701 205.043 136.183 204.88 136.26 204.878 136.463 204.875 136.489 204.875M136.489 201.917 136.489 201.917 136.395 201.917C131.273 201.987 126.515 204.579 123.678 208.845 121.014 206.743 117.718 205.6 114.324 205.6 106.115 205.639 99.3969 212.144 99.0942 220.348 90.687 220.692 84.1508 227.787 84.4953 236.194 84.7904 243.396 90.0928 249.406 97.2024 250.596 98.9403 257.25 104.961 261.883 111.838 261.859 112.315 261.859 112.8 261.836 113.277 261.791 114.427 261.683 115.562 261.443 116.658 261.077 118.553 269.295 126.752 274.421 134.97 272.526 139.486 271.485 143.284 268.45 145.296 264.276 147.749 265.9 150.626 266.767 153.569 266.769 160.915 266.742 167.209 261.508 168.577 254.29 169.281 254.404 169.992 254.47 170.705 254.489L170.916 254.491C179.332 254.488 186.151 247.664 186.149 239.249 186.146 230.979 179.547 224.221 171.279 224.021 170.973 215.824 164.26 209.325 156.057 209.284 154.016 209.293 151.995 209.699 150.109 210.481 147.592 205.247 142.297 201.918 136.489 201.917Z" fill="#274166"/></g></svg>