<svg width="168" height="169" xmlns="http://www.w3.org/2000/svg" xmlns:xlink="http://www.w3.org/1999/xlink" xml:space="preserve" overflow="hidden"><defs><clipPath id="clip0"><rect x="1069" y="18" width="168" height="169"/></clipPath></defs><g clip-path="url(#clip0)" transform="translate(-1069 -18)"><path d="M63 56C67.8324 56 71.75 52.0825 71.75 47.25 71.75 42.4175 67.8324 38.5 63 38.5 58.1676 38.5 54.25 42.4175 54.25 47.25 54.2558 52.0802 58.1698 55.9942 63 56ZM63 42C65.8996 42 68.25 44.3504 68.25 47.25 68.25 50.1496 65.8996 52.5 63 52.5 60.1004 52.5 57.75 50.1496 57.75 47.25 57.75 44.3504 60.1004 42 63 42Z" fill="#274166" transform="matrix(1 0 0 1.00595 1069 18)"/><path d="M22.75 56C27.5825 56 31.5 52.0825 31.5 47.25 31.5 42.4175 27.5825 38.5 22.75 38.5 17.9175 38.5 14 42.4175 14 47.25 14.0058 52.0802 17.9198 55.9942 22.75 56ZM22.75 42C25.6496 42 28 44.3504 28 47.25 28 50.1496 25.6496 52.5 22.75 52.5 19.8504 52.5 17.5 50.1496 17.5 47.25 17.5 44.3504 19.8504 42 22.75 42Z" fill="#274166" transform="matrix(1 0 0 1.00595 1069 18)"/><path d="M143.5 56C148.332 56 152.25 52.0825 152.25 47.25 152.25 42.4175 148.332 38.5 143.5 38.5 138.668 38.5 134.75 42.4175 134.75 47.25 134.756 52.0802 138.67 55.9942 143.5 56ZM143.5 42C146.4 42 148.75 44.3504 148.75 47.25 148.75 50.1496 146.4 52.5 143.5 52.5 140.6 52.5 138.25 50.1496 138.25 47.25 138.25 44.3504 140.6 42 143.5 42Z" fill="#274166" transform="matrix(1 0 0 1.00595 1069 18)"/><path d="M103.25 56C108.082 56 112 52.0825 112 47.25 112 42.4175 108.082 38.5 103.25 38.5 98.4176 38.5 94.5 42.4175 94.5 47.25 94.5058 52.0802 98.4198 55.9942 103.25 56ZM103.25 42C106.15 42 108.5 44.3504 108.5 47.25 108.5 50.1496 106.15 52.5 103.25 52.5 100.35 52.5 98 50.1496 98 47.25 98 44.3504 100.35 42 103.25 42Z" fill="#274166" transform="matrix(1 0 0 1.00595 1069 18)"/><path d="M40.719 31.5648C39.7877 31.3063 38.8232 31.8517 38.5648 32.7831 38.5642 32.7854 38.5635 32.7875 38.563 32.7897L30.7667 60.8493 30.2627 60.6952C27.8642 59.9282 25.3643 59.5254 22.8463 59.5 20.2785 59.5424 17.7289 59.9405 15.2705 60.683L14.7297 60.8353 6.937 32.781C6.67798 31.8493 5.7127 31.304 4.781 31.563 3.8493 31.822 3.30398 32.7873 3.563 33.719L12.313 65.219C12.5237 65.9766 13.2137 66.5005 14 66.5L14 73.5 14 82.7347 7.32375 106.78 14 106.78 14 129.5 31.5 129.5 31.5 106.78 38.1763 106.78 31.5 82.733 31.5 66.5 31.5 66.5C32.2856 66.4996 32.9747 65.9759 33.1852 65.219L41.9352 33.719C42.1939 32.7883 41.6495 31.8241 40.719 31.5648ZM17.5 106.78 21 106.78 21 126 17.5 126ZM28 126 24.5 126 24.5 106.78 28 106.78ZM33.5737 103.28 11.9263 103.28 17.5 83.209 17.5 73.5 17.5 63.714C20.9349 62.7665 24.5611 62.7587 28 63.6912L28 82.9727Z" fill="#274166" transform="matrix(1 0 0 1.00595 1069 18)"/><path d="M80.969 31.5648C80.0377 31.3063 79.0732 31.8517 78.8148 32.7831 78.8142 32.7854 78.8135 32.7875 78.813 32.7897L70.987 60.9648C70.8438 60.854 70.6837 60.767 70.5127 60.7075 68.1149 59.9363 65.6149 59.5292 63.0963 59.5 60.5285 59.5424 57.9789 59.9405 55.5205 60.683 55.3369 60.7418 55.1642 60.8305 55.0095 60.9455L47.187 32.781C46.928 31.8493 45.9627 31.304 45.031 31.563 44.0993 31.822 43.554 32.7873 43.813 33.719L52.563 65.219C52.7737 65.9766 53.4637 66.5005 54.25 66.5L54.25 66.5 54.25 129.5 71.75 129.5 71.75 66.5 71.75 66.5C72.5356 66.4996 73.2247 65.9759 73.4352 65.219L82.1852 33.719C82.4439 32.7883 81.8995 31.8241 80.969 31.5648ZM64.75 126 64.75 94.5 61.25 94.5 61.25 126 57.75 126 57.75 63.7245C59.497 63.2718 61.2916 63.0285 63.0963 63 64.8366 63.0177 66.5679 63.2529 68.25 63.7L68.25 126Z" fill="#274166" transform="matrix(1 0 0 1.00595 1069 18)"/><path d="M121.219 31.5648C120.288 31.3063 119.323 31.8517 119.065 32.7831 119.064 32.7854 119.064 32.7875 119.063 32.7897L111.237 60.9648C111.094 60.854 110.934 60.767 110.763 60.7075 108.365 59.9363 105.865 59.5292 103.346 59.5 100.778 59.5424 98.2289 59.9405 95.7705 60.683 95.5869 60.7418 95.4142 60.8305 95.2595 60.9455L87.437 32.781C87.178 31.8493 86.2127 31.304 85.281 31.563 84.3493 31.822 83.804 32.7873 84.063 33.719L92.813 65.219C93.0237 65.9766 93.7137 66.5005 94.5 66.5L94.5 82.733 87.8238 106.78 94.5 106.78 94.5 129.5 112 129.5 112 106.78 118.676 106.78 112 82.733 112 66.5 112 66.5C112.786 66.4996 113.475 65.9759 113.685 65.219L122.435 33.719C122.694 32.7883 122.149 31.8241 121.219 31.5648ZM98 106.78 101.5 106.78 101.5 126 98 126ZM108.5 126 105 126 105 106.78 108.5 106.78ZM114.074 103.28 92.4262 103.28 98 83.2107 98 63.7262C99.747 63.2735 101.542 63.0297 103.346 63 105.087 63.0173 106.818 63.2525 108.5 63.7L108.5 82.971Z" fill="#274166" transform="matrix(1 0 0 1.00595 1069 18)"/><path d="M161.469 31.5648C160.538 31.3063 159.573 31.8517 159.315 32.7831 159.314 32.7854 159.314 32.7875 159.313 32.7897L151.487 60.9648C151.344 60.854 151.184 60.767 151.013 60.7075 148.615 59.9363 146.115 59.5292 143.596 59.5 141.028 59.5424 138.479 59.9405 136.02 60.683 135.837 60.7418 135.664 60.8305 135.509 60.9455L127.687 32.781C127.428 31.8493 126.463 31.304 125.531 31.563 124.599 31.822 124.054 32.7873 124.313 33.719L133.063 65.219C133.274 65.9766 133.964 66.5005 134.75 66.5L134.75 66.5 134.75 129.5 152.25 129.5 152.25 66.5 152.25 66.5C153.036 66.4996 153.725 65.9759 153.935 65.219L162.685 33.719C162.944 32.7883 162.399 31.8241 161.469 31.5648ZM145.25 126 145.25 94.5 141.75 94.5 141.75 126 138.25 126 138.25 63.7245C139.997 63.2718 141.792 63.0285 143.596 63 145.337 63.0177 147.068 63.2529 148.75 63.7L148.75 126Z" fill="#274166" transform="matrix(1 0 0 1.00595 1069 18)"/></g></svg>