<svg width="141" height="141" xmlns="http://www.w3.org/2000/svg" xmlns:xlink="http://www.w3.org/1999/xlink" xml:space="preserve" overflow="hidden"><defs><clipPath id="clip0"><rect x="895" y="14" width="141" height="141"/></clipPath></defs><g clip-path="url(#clip0)" transform="translate(-895 -14)"><path d="M991.454 58.0625C994.381 55.1642 995.201 50.7533 993.51 46.9969L993.314 46.5563C991.085 41.4741 985.159 39.1609 980.077 41.3893 978.875 41.9162 977.788 42.6738 976.877 43.6188L975.576 44.9701C976.599 39.5292 973.017 34.2892 967.576 33.2663 966.977 33.1537 966.369 33.096 965.76 33.0938L965.269 33.0938C959.731 33.0603 955.214 37.5231 955.18 43.0617 955.174 44.0838 955.324 45.1008 955.626 46.0775L953.255 43.6159C949.404 39.6201 943.044 39.5026 939.048 43.3534 938.103 44.2642 937.345 45.3513 936.818 46.5534L936.621 46.994C934.95 50.7505 935.76 55.1479 938.66 58.0625L915.562 58.0625 915.562 143.25 1015.44 143.25 1015.44 58.0625ZM1012.5 88.9062 971.375 88.9062 971.375 61 1012.5 61ZM959.625 97.7188 918.5 97.7188 918.5 91.8438 959.625 91.8438ZM962.562 61 968.438 61 968.438 140.312 962.562 140.312ZM971.375 91.8438 1012.5 91.8438 1012.5 97.7188 971.375 97.7188ZM978.992 45.6545C980.312 44.2604 982.148 43.4711 984.068 43.4719 984.502 43.4722 984.935 43.511 985.362 43.588 987.705 43.9867 989.685 45.5461 990.623 47.7298L990.82 48.1705C992.397 51.7677 990.759 55.9622 987.162 57.539 986.595 57.7877 985.997 57.9612 985.385 58.0552L967.102 57.9861ZM958.631 45.8146C957.154 42.1771 958.905 38.0307 962.543 36.5535 963.391 36.2088 964.299 36.0315 965.215 36.0312L965.253 36.0312 965.745 36.0312C969.671 36.0514 972.838 39.2503 972.817 43.1763 972.813 44.105 972.626 45.0238 972.268 45.8807L970.411 50.3237 965.059 55.877 961.003 51.6587ZM939.831 54.8533C938.538 52.8596 938.344 50.3464 939.315 48.1778L939.512 47.7372C940.449 45.5535 942.43 43.9941 944.773 43.5953 945.2 43.5183 945.633 43.4796 946.067 43.4793 947.987 43.4784 949.824 44.2677 951.144 45.6618L963.031 57.9993 944.742 58.0625C942.712 57.7667 940.914 56.5932 939.826 54.8533ZM959.625 61 959.625 88.9062 918.5 88.9062 918.5 61ZM918.5 100.656 959.625 100.656 959.625 140.312 918.5 140.312ZM971.375 140.312 971.375 100.656 1012.5 100.656 1012.5 140.312Z" fill="#274166"/></g></svg>