<svg width="163" height="163" xmlns="http://www.w3.org/2000/svg" xmlns:xlink="http://www.w3.org/1999/xlink" xml:space="preserve" overflow="hidden"><defs><clipPath id="clip0"><rect x="706" y="20" width="163" height="163"/></clipPath></defs><g clip-path="url(#clip0)" transform="translate(-706 -20)"><path d="M769.224 145.204C758.275 140.417 749.613 131.566 745.064 120.517 743.926 120.781 742.766 120.937 741.599 120.984 746.511 133.568 756.351 143.599 768.838 148.753 768.853 147.561 768.982 146.372 769.224 145.204Z" fill="#274166"/><path d="M829.924 120.517C825.384 131.571 816.728 140.43 805.783 145.226 806.021 146.387 806.148 147.568 806.162 148.753 818.649 143.601 828.489 133.57 833.4 120.985 832.229 120.939 831.065 120.782 829.924 120.517Z" fill="#274166"/><path d="M768.928 57.6173C756.974 62.5158 747.408 71.8926 742.271 83.7466 743.441 83.8372 744.6 84.0396 745.731 84.351 750.5 73.8639 759.021 65.5414 769.618 61.0217 769.281 59.9112 769.05 58.7714 768.928 57.6173Z" fill="#274166"/><path d="M806.072 57.6173C805.95 58.7685 805.719 59.9055 805.382 61.0132 815.981 65.5351 824.502 73.8606 829.269 84.351 830.398 84.0402 831.553 83.8378 832.721 83.7466 827.586 71.8943 818.023 62.5177 806.072 57.6173Z" fill="#274166"/><path d="M740.807 92.1615C746.434 92.1615 750.995 96.7226 750.995 102.349 750.995 107.975 746.434 112.536 740.807 112.536 735.181 112.536 730.62 107.975 730.62 102.349 730.626 96.7253 735.184 92.1681 740.807 92.1615M740.807 88.7656C733.305 88.7656 727.224 94.8471 727.224 102.349 727.224 109.851 733.305 115.932 740.807 115.932 748.309 115.932 754.391 109.851 754.391 102.349 754.391 94.8471 748.309 88.7656 740.807 88.7656Z" fill="#274166"/><path d="M834.193 92.1615C839.819 92.1615 844.38 96.7226 844.38 102.349 844.38 107.975 839.819 112.536 834.193 112.536 828.566 112.536 824.005 107.975 824.005 102.349 824.012 96.7253 828.569 92.1681 834.193 92.1615M834.193 88.7656C826.691 88.7656 820.609 94.8471 820.609 102.349 820.609 109.851 826.691 115.932 834.193 115.932 841.695 115.932 847.776 109.851 847.776 102.349 847.776 94.8471 841.695 88.7656 834.193 88.7656Z" fill="#274166"/><path d="M787.5 138.854C793.126 138.854 797.688 143.415 797.688 149.042 797.688 154.668 793.126 159.229 787.5 159.229 781.874 159.229 777.312 154.668 777.312 149.042 777.319 143.418 781.876 138.861 787.5 138.854M787.5 135.458C779.998 135.458 773.917 141.54 773.917 149.042 773.917 156.544 779.998 162.625 787.5 162.625 795.002 162.625 801.083 156.544 801.083 149.042 801.083 141.54 795.002 135.458 787.5 135.458Z" fill="#274166"/><path d="M787.5 45.4688C793.126 45.4688 797.688 50.0299 797.688 55.6562 797.688 61.2826 793.126 65.8438 787.5 65.8438 781.874 65.8438 777.312 61.2826 777.312 55.6562 777.319 50.0326 781.876 45.4754 787.5 45.4688M787.5 42.0729C779.998 42.0729 773.917 48.1543 773.917 55.6562 773.917 63.1582 779.998 69.2396 787.5 69.2396 795.002 69.2396 801.083 63.1582 801.083 55.6562 801.083 48.1543 795.002 42.0729 787.5 42.0729Z" fill="#274166"/></g></svg>