<svg width="159" height="159" xmlns="http://www.w3.org/2000/svg" xmlns:xlink="http://www.w3.org/1999/xlink" xml:space="preserve" overflow="hidden"><defs><clipPath id="clip0"><rect x="536" y="28" width="159" height="159"/></clipPath></defs><g clip-path="url(#clip0)" transform="translate(-536 -28)"><path d="M673.138 92.5938C671.812 92.5938 670.653 92.7594 669.328 93.0906L665.684 81.9937C675.787 76.6937 679.763 64.2719 674.463 54.1688 669.162 44.0656 656.741 40.0906 646.638 45.3906 641.172 48.2062 637.197 53.5062 635.872 59.4688L621.297 58.1438C621.131 50.525 615.003 44.5625 607.384 44.7281 599.766 44.8937 593.803 51.0219 593.969 58.6406 593.969 61.4563 594.963 64.1062 596.453 66.425L578.234 84.4781C569.622 77.025 556.537 77.8531 549.084 86.4656 541.631 95.0781 542.294 108.163 550.906 115.616 554.716 118.928 559.519 120.75 564.487 120.75 564.984 120.75 565.481 120.75 565.978 120.75L570.45 144.6C563.162 146.753 559.188 154.372 561.341 161.659 563.494 168.947 571.112 172.922 578.4 170.769 585.688 168.616 589.662 160.997 587.509 153.709 587.178 152.881 586.847 152.053 586.516 151.225L601.256 143.772 601.256 143.772C609.372 154.869 624.941 157.188 635.872 149.072 644.319 142.778 647.963 132.012 644.981 121.909L661.047 113.131C664.856 119.591 673.138 121.909 679.763 118.1 686.222 114.291 688.541 106.009 684.731 99.3844 682.412 95.2437 677.941 92.5938 673.138 92.5938ZM645.975 77.8531C646.472 72.3875 651.441 68.2469 656.906 68.7438 661.709 69.2406 665.519 73.05 666.016 77.8531 660.053 81.9937 652.103 81.9937 645.975 77.8531ZM651.441 60.7937C651.441 58.3094 653.428 56.1562 656.078 56.1562 658.728 56.1562 660.716 58.1438 660.716 60.7937 660.716 63.2781 658.728 65.4313 656.078 65.4313 653.594 65.4313 651.441 63.2781 651.441 60.7937L651.441 60.7937ZM656.078 46.2188C665.684 46.2188 673.469 54.0031 673.469 63.6094 673.469 67.9156 671.812 72.0563 668.997 75.3688 668.003 71.5594 665.188 68.2469 661.544 66.5906 664.691 63.6094 664.856 58.6406 661.875 55.3281 658.894 52.1813 653.925 52.0156 650.612 54.9969 647.3 57.9781 647.3 62.9469 650.281 66.2594 650.447 66.425 650.612 66.5906 650.612 66.5906 646.969 68.2469 644.153 71.3938 643.159 75.3688 636.7 68.2469 637.197 57.3156 644.319 50.8563 647.631 47.875 651.772 46.2188 656.078 46.2188ZM644.981 81.1656 631.566 106.506C619.806 101.041 606.059 105.512 599.766 116.775L583.7 107.997C586.681 100.875 585.356 92.7594 580.553 86.7969L598.772 68.5781C604.403 73.5469 613.016 72.8844 617.984 67.0875 619.475 65.4313 620.469 63.4437 620.966 61.2906L635.541 62.6156C635.541 62.9469 635.541 63.2781 635.541 63.6094 635.375 70.7312 639.019 77.3562 644.981 81.1656ZM605.397 56.4875C605.397 55.1625 606.391 54.1688 607.716 54.1688 609.041 54.1688 610.034 55.1625 610.034 56.4875 610.034 57.8125 609.041 58.8063 607.716 58.8063 607.716 58.8063 607.716 58.8063 607.716 58.8063 606.391 58.6406 605.397 57.6469 605.397 56.4875ZM607.716 61.9531C610.531 61.9531 612.85 63.9406 613.347 66.7562 609.869 69.075 605.562 69.075 602.084 66.7562 602.416 64.1062 604.734 62.1188 607.716 61.9531ZM607.716 47.875C613.347 47.875 617.984 52.5125 618.15 58.1438 618.15 60.2969 617.487 62.45 616.162 64.2719 615.334 62.45 614.009 60.7937 612.188 59.8 613.016 58.8063 613.347 57.6469 613.347 56.3219 613.347 53.175 610.862 50.6906 607.716 50.6906 604.569 50.6906 602.084 53.175 602.084 56.3219 602.084 57.6469 602.581 58.8063 603.244 59.8 601.422 60.7937 600.097 62.2844 599.269 64.2719 595.956 59.6344 596.95 53.175 601.422 49.8625 603.244 48.5375 605.397 47.875 607.716 47.875ZM547.263 100.047C547.263 90.4406 555.047 82.6562 564.653 82.6562 574.259 82.6562 582.044 90.4406 582.044 100.047 582.044 104.353 580.388 108.494 577.572 111.806 576.578 107.997 573.763 104.684 570.119 103.028 573.266 100.047 573.431 95.0781 570.45 91.7656 567.469 88.4531 562.5 88.4531 559.188 91.4344 556.041 94.4156 555.875 99.3844 558.856 102.697 559.022 102.863 559.188 103.028 559.188 103.028 555.544 104.684 552.728 107.831 551.734 111.806 548.753 108.494 547.263 104.353 547.263 100.047ZM560.016 97.2312C560.016 94.7469 562.003 92.5938 564.653 92.5938 567.303 92.5938 569.291 94.5813 569.291 97.2312 569.291 99.7156 567.303 101.869 564.653 101.869 562.003 101.869 560.016 99.7156 560.016 97.2312ZM554.55 114.291C555.047 108.825 560.016 104.684 565.481 105.181 570.284 105.678 574.094 109.488 574.591 114.291 568.628 118.431 560.513 118.431 554.55 114.291ZM568.794 166.297C569.291 163.15 572.106 160.997 575.253 161.494 577.737 161.825 579.725 163.812 580.056 166.297 576.744 168.45 572.272 168.45 568.794 166.297ZM572.272 155.862C572.272 154.538 573.266 153.544 574.591 153.544 575.916 153.544 576.909 154.538 576.909 155.862 576.909 157.188 575.916 158.181 574.591 158.181 573.266 158.016 572.272 157.022 572.272 155.862L572.272 155.862ZM582.872 163.647C582.044 161.825 580.719 160.169 578.897 159.175 579.725 158.181 580.056 157.022 580.056 155.697 580.056 152.55 577.572 150.066 574.425 150.066 571.278 150.066 568.794 152.55 568.794 155.697 568.794 157.022 569.291 158.181 569.953 159.175 568.131 160.169 566.806 161.659 565.978 163.647 562.666 159.009 563.659 152.55 568.297 149.237 572.934 145.925 579.394 146.919 582.706 151.556 585.522 155.034 585.522 160.003 582.872 163.647L582.872 163.647ZM584.528 148.409C582.044 145.594 578.4 143.938 574.591 143.938 574.425 143.938 574.094 143.938 573.928 143.938L569.456 120.087C574.756 118.762 579.394 115.45 582.209 110.812L598.275 119.591C595.459 126.547 595.956 134.331 599.434 140.791L584.528 148.409ZM608.709 146.422C609.206 139.466 615.334 134.331 622.291 134.828 628.419 135.325 633.388 140.294 633.884 146.422 626.431 151.888 616.162 151.888 608.709 146.422ZM615.334 125.553C615.334 122.241 617.984 119.591 621.297 119.591 624.609 119.591 627.259 122.241 627.259 125.553 627.259 128.866 624.609 131.516 621.297 131.516 621.297 131.516 621.297 131.516 621.297 131.516 617.984 131.516 615.334 128.866 615.334 125.553ZM636.866 143.938C635.706 138.803 632.062 134.663 627.259 132.675 631.234 129.363 631.731 123.566 628.419 119.591 625.106 115.616 619.309 115.119 615.334 118.431 611.359 121.744 610.862 127.541 614.175 131.516 614.506 132.012 615.003 132.344 615.334 132.675 610.531 134.663 606.888 138.803 605.728 143.938 597.447 135.325 597.778 121.744 606.391 113.462 615.003 105.181 628.584 105.512 636.866 114.125 644.816 122.406 644.816 135.656 636.866 143.938ZM643.822 118.762C641.834 114.291 638.522 110.647 634.547 107.997L647.963 82.6562C652.6 84.6438 657.734 84.8094 662.537 83.3188L666.181 94.4156C660.716 97.5625 658.066 104.022 659.888 109.984L643.822 118.762ZM667.341 114.953C667.838 111.806 670.653 109.653 673.8 110.15 676.284 110.481 678.272 112.469 678.603 114.953 675.291 117.106 670.819 117.106 667.341 114.953ZM670.819 104.519C670.819 103.194 671.812 102.2 673.138 102.2 674.463 102.2 675.456 103.194 675.456 104.519 675.456 105.844 674.463 106.837 673.138 106.837 673.138 106.837 673.138 106.837 673.138 106.837 671.812 106.672 670.819 105.678 670.819 104.519L670.819 104.519ZM681.419 112.303C680.591 110.481 679.266 108.825 677.444 107.831 678.272 106.837 678.603 105.678 678.603 104.353 678.603 101.206 676.119 98.7219 672.972 98.7219 669.825 98.7219 667.341 101.206 667.341 104.353 667.341 105.678 667.838 106.837 668.5 107.831 666.678 108.825 665.353 110.316 664.525 112.303 661.213 107.666 662.206 101.206 666.844 97.8938 671.481 94.5813 677.941 95.575 681.253 100.212 684.069 103.691 684.069 108.659 681.419 112.303 681.419 112.303 681.419 112.303 681.419 112.303Z" fill="#274166"/></g></svg>