<svg width="126" height="126" xmlns="http://www.w3.org/2000/svg" xmlns:xlink="http://www.w3.org/1999/xlink" xml:space="preserve" overflow="hidden"><defs><clipPath id="clip0"><rect x="380" y="57" width="126" height="126"/></clipPath></defs><g clip-path="url(#clip0)" transform="translate(-380 -57)"><path d="M462.425 137.456C463.081 136.144 462.688 134.569 461.375 133.913 460.062 133.256 458.487 133.65 457.831 134.962L452.581 144.281 456.125 130.237C456.519 128.794 455.6 127.35 454.156 127.088 452.712 126.694 451.269 127.612 451.006 129.056L447.987 141.131 447.987 128.006C447.987 126.562 446.806 125.381 445.362 125.381 443.919 125.381 442.737 126.562 442.737 128.006L442.737 142.05 439.719 129.056C439.456 127.612 438.013 126.825 436.569 127.088 435.125 127.35 434.337 128.794 434.6 130.237L438.275 145.856C438.144 147.694 437.75 149.531 437.356 151.106 437.356 151.106 437.356 150.975 437.225 150.975 434.994 147.562 431.45 144.544 428.038 143.625 426.725 143.231 425.413 144.019 425.019 145.331 424.625 146.644 425.413 147.956 426.725 148.35 428.431 148.744 430.006 151.238 431.712 153.863 433.812 157.144 436.438 160.95 440.375 163.181L440.375 177.225 451.925 177.225 451.925 162.394C456.256 160.163 456.781 150.844 456.913 147.3L462.425 137.456Z" fill="#274166"/><path d="M416.094 138.506 427.513 138.638C427.513 138.638 427.513 138.638 427.513 138.638 428.956 138.638 430.138 137.456 430.138 136.013 430.138 134.569 428.956 133.388 427.513 133.388L416.881 133.256 430.794 129.712C432.237 129.319 433.025 127.875 432.631 126.562 432.237 125.119 430.794 124.331 429.481 124.725L417.406 127.875 428.956 121.575C430.269 120.919 430.663 119.344 430.006 118.031 429.35 116.719 427.775 116.325 426.462 116.981L414.125 123.544 424.1 114.75C425.15 113.831 425.281 112.125 424.362 111.075 423.444 110.025 421.737 109.894 420.688 110.812L408.612 121.312C406.906 122.1 405.2 122.625 403.494 122.888 403.494 122.888 403.494 122.756 403.625 122.756 405.594 119.081 406.513 114.619 405.725 111.206 405.462 109.894 404.019 109.106 402.706 109.369 401.394 109.631 400.606 111.075 400.869 112.387 401.263 114.094 399.95 116.588 398.506 119.344 396.669 122.756 394.569 126.825 394.438 131.419L382.1 138.112 387.612 148.219 400.606 141.262C404.544 144.019 412.944 140.081 416.094 138.506Z" fill="#274166"/><path d="M417.538 95.7188 420.294 106.744C420.556 107.925 421.606 108.713 422.788 108.713 423.05 108.713 423.181 108.713 423.444 108.581 424.888 108.188 425.675 106.875 425.413 105.431L422.919 95.0625 429.875 107.531C430.4 108.45 431.188 108.844 432.237 108.844 432.631 108.844 433.156 108.713 433.55 108.45 434.862 107.794 435.256 106.088 434.6 104.906L428.562 94.0125 437.487 103.594C438.013 104.119 438.669 104.381 439.456 104.381 440.112 104.381 440.769 104.119 441.294 103.725 442.344 102.675 442.344 101.1 441.425 100.05L431.844 89.8125 443 97.2937C443.394 97.5562 443.919 97.6875 444.444 97.6875 445.231 97.6875 446.15 97.2937 446.675 96.5063 447.462 95.325 447.2 93.6187 446.019 92.8313L432.631 83.9062C431.45 82.4625 430.531 80.8875 429.744 79.4437 429.744 79.4437 429.875 79.4437 429.875 79.4437 433.812 80.3625 438.406 80.2312 441.556 78.525 442.737 77.8688 443.131 76.425 442.475 75.2438 441.819 74.0625 440.375 73.6687 439.194 74.325 437.75 75.1125 434.862 74.4563 431.844 73.8 428.038 72.8812 423.575 71.8313 419.112 73.0125L409.531 62.775 401.131 70.65 411.237 81.4125C409.138 86.0062 415.044 93.225 417.538 95.7188Z" fill="#274166"/><path d="M503.9 147.3 493.925 136.406C495.631 131.812 489.725 124.594 487.362 121.969L484.737 110.944C484.344 109.5 483.031 108.713 481.587 108.975 480.144 109.369 479.356 110.681 479.619 112.125L482.112 122.494 475.156 109.894C474.5 108.581 472.925 108.188 471.612 108.844 470.3 109.5 469.906 111.075 470.562 112.387L476.6 123.412 467.675 113.831C466.625 112.781 465.05 112.65 464 113.7 462.95 114.75 462.819 116.325 463.869 117.375L473.45 127.744 462.425 120.262C461.244 119.475 459.538 119.738 458.75 120.919 457.962 122.1 458.225 123.806 459.406 124.594L472.663 133.65C473.844 135.094 474.763 136.669 475.55 138.112 475.55 138.112 475.419 138.112 475.419 138.112 471.481 137.194 466.888 137.325 463.737 139.031 462.556 139.688 462.031 141.131 462.688 142.312 463.344 143.494 464.788 144.019 465.969 143.363 467.413 142.575 470.3 143.231 473.319 144.019 477.125 144.938 481.587 145.988 486.05 144.938L495.5 155.175 503.9 147.3Z" fill="#274166"/><path d="M449.956 91.125C450.219 91.125 450.481 91.125 450.875 90.9937L460.85 87.45 449.038 95.5875C447.856 96.375 447.594 98.0813 448.381 99.2625 448.906 100.05 449.694 100.444 450.481 100.444 451.006 100.444 451.531 100.312 451.925 99.9187L462.163 92.8313 453.5 102.675C452.581 103.725 452.712 105.431 453.763 106.35 454.288 106.744 454.812 107.006 455.469 107.006 456.256 107.006 456.913 106.744 457.438 106.088L466.756 95.4563 460.456 107.269C459.8 108.581 460.194 110.156 461.506 110.812 461.9 111.075 462.294 111.075 462.688 111.075 463.606 111.075 464.525 110.55 465.05 109.631L472.663 95.4563C473.975 94.1438 475.419 93.0938 476.862 92.175 476.862 92.175 476.862 92.3062 476.862 92.3062 476.337 96.375 476.994 100.969 478.962 103.856 479.75 105.037 481.194 105.3 482.375 104.512 483.556 103.725 483.819 102.281 483.031 101.1 482.112 99.6562 482.506 96.7688 482.9 93.6187 483.425 89.8125 483.95 85.2188 482.506 80.8875L491.694 70.3875 483.031 62.775 473.319 73.9313C468.594 72.75 462.031 79.4437 459.669 81.9375L448.906 85.7438C447.594 86.2688 446.806 87.7125 447.331 89.1562 447.856 90.4688 448.906 91.125 449.956 91.125Z" fill="#274166"/></g></svg>