<svg width="170" height="171" xmlns="http://www.w3.org/2000/svg" xmlns:xlink="http://www.w3.org/1999/xlink" xml:space="preserve" overflow="hidden"><defs><clipPath id="clip0"><rect x="967" y="365" width="170" height="171"/></clipPath></defs><g clip-path="url(#clip0)" transform="translate(-967 -365)"><path d="M65.5208 68.3736 108.021 68.3736C110.955 68.3736 113.333 70.7521 113.333 73.6861 113.333 76.6202 110.955 78.9986 108.021 78.9986L76.1458 78.9986C75.1678 78.9986 74.375 79.7915 74.375 80.7695 74.375 81.7475 75.1678 82.5403 76.1458 82.5403L108.021 82.5403C112.911 82.5403 116.875 78.5761 116.875 73.6861 116.875 68.7962 112.911 64.832 108.021 64.832L65.5208 64.832C62.327 64.8577 59.1944 65.7119 56.4294 67.3111L6.31479 91.3945C5.41524 91.7782 4.99715 92.8186 5.38094 93.7182 5.76475 94.6178 6.80512 95.0359 7.70467 94.6521 7.75418 94.6309 7.80272 94.6075 7.8501 94.582L58.0833 70.442C60.3378 69.111 62.903 68.3976 65.5208 68.3736Z" fill="#274166" transform="matrix(1 0 0 1.00588 967 365)"/><path d="M155.833 50.4829C154.204 50.4475 152.6 50.8994 151.229 51.7809L120.948 69.1351C120.099 69.6212 119.805 70.7034 120.291 71.5523 120.777 72.4012 121.859 72.6954 122.708 72.2093L153.104 54.7896C153.916 54.2647 154.867 53.998 155.833 54.0246 158.767 54.0246 161.146 56.403 161.146 59.3371 161.075 60.9076 160.406 62.3916 159.276 63.4844L110.718 98.9896C109.788 99.6892 108.658 100.071 107.495 100.077L74.375 100.077C56.2629 100.077 41.5402 105.616 30.6213 116.546 29.9177 117.225 29.8982 118.346 30.5777 119.05 31.2572 119.753 32.3783 119.773 33.0816 119.093 33.0965 119.079 33.111 119.064 33.1252 119.05 43.3571 108.814 57.2369 103.626 74.375 103.626L107.49 103.626C109.397 103.618 111.253 103.002 112.786 101.867L161.5 66.261 161.707 66.084C163.564 64.3248 164.643 61.8979 164.705 59.3406 164.7 54.4452 160.729 50.4799 155.833 50.4829Z" fill="#274166" transform="matrix(1 0 0 1.00588 967 365)"/></g></svg>