<svg width="142" height="142" xmlns="http://www.w3.org/2000/svg" xmlns:xlink="http://www.w3.org/1999/xlink" xml:space="preserve" overflow="hidden"><defs><clipPath id="clip0"><rect x="209" y="36" width="142" height="142"/></clipPath></defs><g clip-path="url(#clip0)" transform="translate(-209 -36)"><path d="M266.735 87.7398C265.918 87.7398 265.256 88.402 265.256 89.2189L265.241 163.208 257.858 163.208 257.858 121.792 254.9 121.792 254.9 163.208 247.504 163.208 247.504 89.2189C247.504 88.402 246.842 87.7398 246.025 87.7398 245.208 87.7398 244.546 88.402 244.546 89.2189L244.546 166.167 268.199 166.167 268.214 89.2189C268.214 88.402 267.552 87.7398 266.735 87.7398Z" fill="#274166"/><path d="M256.379 68.5417C262.098 68.5417 266.733 63.906 266.733 58.1875 266.733 52.469 262.098 47.8333 256.379 47.8333 250.661 47.8333 246.025 52.469 246.025 58.1875 246.032 63.9033 250.663 68.5352 256.379 68.5417ZM256.379 50.7917C260.464 50.7917 263.775 54.1029 263.775 58.1875 263.775 62.2721 260.464 65.5833 256.379 65.5833 252.295 65.5833 248.983 62.2721 248.983 58.1875 248.988 54.1049 252.297 50.7965 256.379 50.7917Z" fill="#274166"/><path d="M302.233 68.5417C307.952 68.5417 312.588 63.906 312.588 58.1875 312.588 52.469 307.952 47.8333 302.233 47.8333 296.515 47.8333 291.879 52.469 291.879 58.1875 291.886 63.9033 296.518 68.5352 302.233 68.5417ZM302.233 50.7917C306.318 50.7917 309.629 54.1029 309.629 58.1875 309.629 62.2721 306.318 65.5833 302.233 65.5833 298.149 65.5833 294.838 62.2721 294.838 58.1875 294.842 54.1049 298.151 50.7965 302.233 50.7917Z" fill="#274166"/><path d="M327.185 112.745 320.755 82.718C320.425 81.5921 319.887 80.5383 319.167 79.6117 316.582 76.584 313.263 74.2699 309.529 72.8904 304.847 71.0435 299.639 71.0403 294.954 72.8815 291.185 74.2764 287.839 76.62 285.239 79.6857 284.525 80.6273 283.995 81.6953 283.677 82.8334L279.744 101.231C279.742 101.239 279.733 101.243 279.725 101.241 279.721 101.239 279.717 101.236 279.716 101.231L277.19 83.9383C277.069 82.9998 276.785 82.0896 276.351 81.2492 276.04 80.673 275.67 80.1315 275.244 79.6339 272.333 76.546 268.702 74.2273 264.676 72.8845 259.307 71.0438 253.478 71.0438 248.109 72.8845 244.048 74.2388 240.388 76.5833 237.459 79.7064 237.058 80.1869 236.707 80.7066 236.41 81.2581 235.976 82.0985 235.693 83.0087 235.573 83.9472L231.284 113.245C230.891 115.112 231.334 117.057 232.497 118.57 233.605 119.77 235.193 120.409 236.823 120.312 237.64 120.312 238.302 119.65 238.302 118.833 238.302 118.016 237.64 117.354 236.823 117.354 236.052 117.426 235.288 117.159 234.73 116.622 234.151 115.748 233.965 114.672 234.215 113.655L238.498 84.3673C238.57 83.7688 238.745 83.1873 239.015 82.6485 239.202 82.3001 239.421 81.9698 239.669 81.6619 242.256 78.9204 245.483 76.8645 249.06 75.6786 251.419 74.8652 253.897 74.4527 256.393 74.4583 258.887 74.4509 261.365 74.866 263.72 75.686 267.266 76.8609 270.467 78.8933 273.039 81.6027 273.31 81.9277 273.548 82.2796 273.748 82.6529 274.017 83.1907 274.19 83.7715 274.261 84.3688L277.876 109.083C277.901 109.196 277.941 109.306 277.994 109.41L277.264 112.822C276.593 117.014 278.62 118.897 280.438 119.74 281.179 120.084 282.059 119.761 282.402 119.02 282.746 118.278 282.423 117.399 281.682 117.055 280.714 116.612 279.783 115.811 280.172 113.366L286.547 83.5508C286.754 82.8273 287.09 82.1469 287.538 81.5421 289.804 78.8868 292.714 76.8586 295.99 75.652 300.009 74.0594 304.484 74.0625 308.501 75.6609 311.742 76.8547 314.624 78.8562 316.876 81.4755 317.328 82.0666 317.673 82.7331 317.893 83.4443L324.282 113.289C324.684 115.811 323.751 116.609 322.785 117.055 322.041 117.394 321.713 118.271 322.051 119.014 322.389 119.758 323.266 120.086 324.01 119.748 324.016 119.746 324.021 119.743 324.027 119.74 325.854 118.897 327.873 117.012 327.185 112.745Z" fill="#274166"/><path d="M314.065 103.84 314.065 89.2189C314.065 88.402 313.403 87.7398 312.586 87.7398 311.769 87.7398 311.107 88.402 311.107 89.2189L311.107 104.042 318.037 129.188 286.428 129.188 293.304 104.438 293.357 89.2189C293.357 88.402 292.695 87.7398 291.878 87.7398 291.061 87.7398 290.399 88.402 290.399 89.2189L290.399 103.84 282.537 132.146 290.399 132.146 290.399 166.167 314.052 166.167 314.052 132.146 321.923 132.146ZM293.357 132.146 300.753 132.146 300.753 163.208 293.357 163.208ZM311.094 163.208 303.713 163.208 303.713 132.146 311.101 132.146Z" fill="#274166"/></g></svg>