<svg width="141" height="142" xmlns="http://www.w3.org/2000/svg" xmlns:xlink="http://www.w3.org/1999/xlink" xml:space="preserve" overflow="hidden"><defs><clipPath id="clip0"><rect x="39" y="39" width="141" height="142"/></clipPath></defs><g clip-path="url(#clip0)" transform="translate(-39 -39)"><path d="M131.952 62.0694C131.952 51.7881 126.195 36.7188 113.828 36.7188L87.3906 36.7188C86.7344 35.3998 85.5998 34.3806 84.2181 33.8694 82.805 33.2977 81.225 33.2977 79.8119 33.8694 78.6846 32.8462 77.2216 32.2715 75.6994 32.2537 73.9867 32.2391 72.3461 32.9422 71.1756 34.1925 69.603 33.5022 67.8132 33.5022 66.2406 34.1925 65.0703 34.7182 64.098 35.6031 63.4647 36.7188 63.4647 36.7188 24.5722 36.7188 24.4547 36.8069 16.0094 37.7616 9.54688 48.3366 9.54688 61.6875 9.54688 75.6847 16.6409 86.6562 25.7031 86.6562L60.2188 86.6562 60.2188 108.688 74.9062 97.3047 89.5938 108.688 89.5938 86.6562 124.109 86.6562C125.732 86.6562 127.047 85.3411 127.047 83.7188 127.047 82.0964 125.732 80.7812 124.109 80.7812 119.855 80.9725 116.245 77.6909 116.031 73.4375L124.844 73.4375C128.281 73.4375 131.952 70.5 131.952 62.0694ZM75.4056 42.8581C82.5277 42.8581 88.3012 48.6318 88.3011 55.7539 88.3011 62.876 82.5275 68.6495 75.4053 68.6494 68.3063 68.6492 62.5423 62.9116 62.51 55.8125 62.4775 48.6905 68.2248 42.8907 75.3467 42.8583 75.3664 42.8581 75.3859 42.8581 75.4056 42.8581ZM57.3694 42.5938C57.3401 42.9652 57.3401 43.3386 57.3694 43.71 54.2318 44.9448 52.6824 48.4834 53.9031 51.6266 52.8455 52.7662 52.2487 54.2578 52.2288 55.8125 52.2465 57.4842 52.947 59.0762 54.1675 60.2188 53.4779 61.7863 53.4779 63.5715 54.1675 65.1391 54.5718 66.0891 55.2081 66.9223 56.0181 67.5625L39.5387 67.5625C40.5673 65.2498 41.1072 62.7497 41.125 60.2188 41.125 52.875 39.3331 46.765 36.3222 42.5938ZM25.7031 80.7812C20.7388 80.7812 15.4219 73.1144 15.4219 61.6875 15.4219 50.2606 20.7388 42.5938 25.7031 42.5938 31.2403 42.5938 35.25 49.9375 35.25 60.2188 35.25 60.2188 35.1472 67.5625 30.8438 67.5625 28.7581 67.5625 26.4375 64.1109 26.4375 59.4844 26.4303 58.4968 26.5337 57.5114 26.7459 56.5469 27.0987 54.9611 26.0992 53.3894 24.5134 53.0366 22.9276 52.6838 21.3559 53.6833 21.0031 55.2691 20.7023 56.6538 20.5546 58.0673 20.5625 59.4844 20.5625 67.3128 25.0863 73.4375 30.8438 73.4375L60.2188 73.4375 60.2188 80.7812ZM74.9062 89.8728 66.0938 96.7025 66.0938 77.0947C66.4341 77.3078 66.7929 77.4896 67.1659 77.6381 68.583 78.1891 70.1551 78.1891 71.5722 77.6381 72.7043 78.689 74.1844 79.2853 75.7288 79.3125 77.44 79.32 79.0778 78.6181 80.2525 77.3737 81.3463 77.8338 82.5477 77.9762 83.7188 77.785L83.7188 96.7025ZM89.5938 80.7812 89.5938 73.9516C90.0407 73.8236 90.4737 73.6515 90.8863 73.4375L110.156 73.4375C110.156 76.0726 110.983 78.6411 112.521 80.7812ZM94.5875 67.5625C95.9816 66.9176 97.0676 65.7524 97.6131 64.3166 98.1598 62.8986 98.1598 61.3282 97.6131 59.9103 98.6508 58.7922 99.2279 57.3233 99.2287 55.7978 99.2362 54.0866 98.5343 52.4488 97.29 51.2741 97.9731 49.7 97.9731 47.9131 97.29 46.3391 96.6843 44.9219 95.5522 43.795 94.1322 43.1959 94.1053 42.9918 94.0611 42.7904 94 42.5938L113.828 42.5938C119.703 42.5938 123.493 48.9828 125.093 54.9606 126.959 61.9813 125.725 67.0484 124.844 67.5625Z" fill="#274166" transform="matrix(1 0 0 1.00709 39 39)"/></g></svg>