<svg width="121" height="120" xmlns="http://www.w3.org/2000/svg" xmlns:xlink="http://www.w3.org/1999/xlink" xml:space="preserve" overflow="hidden"><defs><clipPath id="clip0"><rect x="832" y="389" width="121" height="120"/></clipPath></defs><g clip-path="url(#clip0)" transform="translate(-832 -389)"><path d="M95 12.5 25 12.5 25 20 47.5 20C55.9249 20.5219 62.9437 26.648 64.6 34.925L25 34.925 25 42.575 64.6 42.575C62.8375 50.975 55.4375 57.5 46.875 57.5L25 57.5 25 64.05 69.225 108.275 74.525 102.975 36.55 65 46.875 65C59.5 65 70.3125 55 72.1875 42.575L95 42.575 95 34.925 72.1875 34.925C71.3351 29.2669 68.6834 24.0336 64.625 20L95 20Z" fill="#274166" transform="matrix(1.00833 0 0 1 832 389)"/></g></svg>