<svg width="196" height="196" xmlns="http://www.w3.org/2000/svg" xmlns:xlink="http://www.w3.org/1999/xlink" xml:space="preserve" overflow="hidden"><defs><clipPath id="clip0"><rect x="591" y="344" width="196" height="196"/></clipPath></defs><g clip-path="url(#clip0)" transform="translate(-591 -344)"><path d="M723.504 437.739C723.442 436.147 724.032 434.599 725.138 433.452 726.409 432.548 727.786 431.803 729.237 431.232 740.157 426.362 752.647 426.437 763.509 431.436 764.677 431.89 765.777 432.504 766.775 433.262 767.932 434.469 768.593 436.067 768.625 437.739L768.625 458.246C770.044 459.301 771.407 460.43 772.708 461.627L772.708 437.739C772.735 434.971 771.635 432.312 769.66 430.373 768.326 429.26 766.824 428.364 765.211 427.719 753.326 422.157 739.604 422.064 727.645 427.463 725.837 428.174 724.13 429.119 722.567 430.273 720.494 432.193 719.347 434.914 719.421 437.739L719.421 440.199C720.8 440.413 722.161 440.641 723.504 440.883Z" fill="#274166"/><path d="M746.073 421.402C753.966 421.402 760.364 415.003 760.364 407.11 760.364 399.217 753.966 392.818 746.073 392.818 738.18 392.818 731.781 399.217 731.781 407.11 731.734 414.955 738.055 421.354 745.901 421.402 745.958 421.402 746.015 421.402 746.073 421.402ZM746.073 396.902C751.707 396.91 756.273 401.475 756.281 407.11 756.281 412.748 751.711 417.318 746.073 417.318 740.435 417.318 735.864 412.748 735.864 407.11 735.864 401.472 740.435 396.902 746.073 396.902Z" fill="#274166"/><path d="M609.375 437.739C609.387 436.852 609.572 435.976 609.92 435.16 610.394 434.029 611.233 433.087 612.303 432.486 613.141 432.009 614.011 431.59 614.906 431.23 625.826 426.362 638.315 426.436 649.177 431.434 650.346 431.887 651.446 432.502 652.444 433.26 653.601 434.467 654.261 436.067 654.292 437.739L654.292 440.918C655.638 440.676 656.999 440.446 658.375 440.23L658.375 437.739C658.338 434.985 657.248 432.35 655.329 430.375 654.002 429.25 652.497 428.353 650.876 427.721 638.991 422.159 625.269 422.066 613.309 427.465 611.55 428.16 609.885 429.073 608.354 430.185L608.032 430.487C606.202 432.451 605.218 435.056 605.292 437.739L605.292 461.627C606.593 460.43 607.956 459.303 609.375 458.248Z" fill="#274166"/><path d="M689 413.231C696.893 413.231 703.292 406.832 703.292 398.939 703.292 391.046 696.893 384.648 689 384.648 681.107 384.648 674.708 391.046 674.708 398.939 674.661 406.785 680.982 413.183 688.828 413.231 688.885 413.231 688.943 413.231 689 413.231ZM689 388.731C694.635 388.738 699.202 393.304 699.208 398.939 699.208 404.577 694.638 409.148 689 409.148 683.362 409.148 678.792 404.577 678.792 398.939 678.792 393.301 683.362 388.731 689 388.731Z" fill="#274166"/><path d="M631.833 421.402C639.726 421.402 646.125 415.003 646.125 407.11 646.125 399.217 639.726 392.818 631.833 392.818 623.94 392.818 617.542 399.217 617.542 407.11 617.494 414.955 623.816 421.354 631.661 421.402 631.719 421.402 631.776 421.402 631.833 421.402ZM631.833 396.902C637.468 396.91 642.034 401.475 642.042 407.11 642.042 412.748 637.471 417.318 631.833 417.318 626.195 417.318 621.625 412.748 621.625 407.11 621.625 401.472 626.195 396.902 631.833 396.902Z" fill="#274166"/><path d="M666.338 429.57C666.276 427.978 666.866 426.43 667.971 425.283 669.242 424.379 670.619 423.634 672.07 423.064 682.991 418.193 695.482 418.267 706.344 423.268 707.513 423.719 708.613 424.333 709.611 425.091 710.767 426.299 711.427 427.898 711.458 429.57L711.458 439.142C712.833 439.294 714.194 439.46 715.542 439.64L715.542 429.57C715.508 426.814 714.419 424.175 712.5 422.196 711.174 421.07 709.669 420.173 708.049 419.542 696.164 413.979 682.442 413.886 670.482 419.286 668.673 419.998 666.965 420.942 665.4 422.096 663.325 424.019 662.179 426.742 662.254 429.57L662.254 439.666C663.603 439.485 664.964 439.317 666.338 439.162Z" fill="#274166"/><path d="M689 442C638.626 442 599.167 459.487 599.167 481.812 599.167 504.138 638.626 521.625 689 521.625 739.374 521.625 778.833 504.138 778.833 481.812 778.833 459.487 739.374 442 689 442ZM689 517.542C642.517 517.542 603.25 501.18 603.25 481.812 603.25 462.445 642.517 446.083 689 446.083 735.483 446.083 774.75 462.445 774.75 481.812 774.75 501.18 735.483 517.542 689 517.542Z" fill="#274166"/></g></svg>