<svg width="170" height="171" xmlns="http://www.w3.org/2000/svg" xmlns:xlink="http://www.w3.org/1999/xlink" xml:space="preserve" overflow="hidden"><defs><clipPath id="clip0"><rect x="391" y="365" width="170" height="171"/></clipPath></defs><g clip-path="url(#clip0)" transform="translate(-391 -365)"><path d="M109.792 44.2708C109.792 30.5788 98.6921 19.4792 85 19.4792 71.3079 19.4792 60.2083 30.5788 60.2083 44.2708 60.2083 57.9629 71.3079 69.0625 85 69.0625 98.6861 69.0478 109.777 57.9569 109.792 44.2708ZM72.6591 61.5365C73.2252 54.7207 79.2094 49.6545 86.0251 50.2207 92.055 50.7215 96.8401 55.5066 97.3409 61.5365 89.9713 66.8488 80.0287 66.8488 72.6591 61.5365ZM79.2111 40.8301C79.2122 37.6281 81.8086 35.0331 85.0106 35.0342 88.2126 35.0352 90.8076 37.6316 90.8066 40.8336 90.8055 44.0357 88.2091 46.6306 85.0071 46.6296 85.0048 46.6296 85.0023 46.6296 85 46.6296 81.7985 46.6266 79.2042 44.0316 79.2023 40.8301ZM63.75 44.2708C63.7217 32.5348 73.2126 22.9978 84.9486 22.9695 96.6847 22.9411 106.221 32.4321 106.25 44.1681 106.263 49.6028 104.193 54.836 100.466 58.7917 99.2584 53.8617 95.7821 49.798 91.0988 47.8408 95.0052 44.4725 95.4414 38.5753 92.0731 34.669 88.7049 30.7626 82.8077 30.3264 78.9013 33.6945 74.9948 37.0628 74.5586 42.9601 77.9269 46.8665 78.2273 47.2148 78.5529 47.5405 78.9013 47.8408 74.2174 49.7973 70.7409 53.8613 69.5335 58.7917 65.8222 54.8675 63.7528 49.6721 63.75 44.2708Z" fill="#274166" transform="matrix(1 0 0 1.00588 391 365)"/><path d="M102.708 132.812C102.708 123.032 94.78 115.104 85 115.104 75.22 115.104 67.2917 123.032 67.2917 132.812 67.2917 142.593 75.22 150.521 85 150.521 94.7755 150.51 102.698 142.588 102.708 132.812ZM77.0596 144.537C77.5505 140.152 81.5033 136.995 85.8888 137.486 89.5978 137.901 92.5253 140.828 92.9404 144.537 88.1475 147.793 81.8525 147.793 77.0596 144.537ZM81.5309 130.431C81.5309 128.515 83.0841 126.962 85 126.962 86.9159 126.962 88.4691 128.515 88.4691 130.431 88.4691 132.347 86.9159 133.9 85 133.9 83.0848 133.898 81.5329 132.346 81.5309 130.431ZM70.8333 132.812C70.8264 124.988 77.1634 118.64 84.9874 118.633 92.8113 118.626 99.1596 124.963 99.1667 132.787 99.1695 136.064 98.0362 139.241 95.9597 141.776 94.9772 138.886 92.8954 136.499 90.1655 135.132 92.7833 132.279 92.5928 127.845 89.74 125.227 86.8872 122.609 82.4523 122.799 79.8345 125.652 77.3743 128.333 77.3743 132.451 79.8345 135.132 77.1046 136.499 75.0228 138.886 74.0403 141.776 71.9642 139.251 70.8305 136.082 70.8333 132.812Z" fill="#274166" transform="matrix(1 0 0 1.00588 391 365)"/><path d="M132.812 115.104C123.032 115.104 115.104 123.032 115.104 132.812 115.104 142.593 123.032 150.521 132.812 150.521 142.593 150.521 150.521 142.593 150.521 132.812 150.51 123.037 142.588 115.115 132.812 115.104ZM124.872 144.537C125.363 140.152 129.316 136.995 133.701 137.486 137.41 137.901 140.338 140.828 140.753 144.537 135.96 147.793 129.665 147.793 124.872 144.537ZM129.343 130.431C129.343 128.515 130.897 126.962 132.812 126.962 134.728 126.962 136.282 128.515 136.282 130.431 136.282 132.347 134.728 133.9 132.812 133.9 130.897 133.898 129.345 132.346 129.343 130.431ZM143.772 141.776C142.79 138.886 140.708 136.499 137.978 135.132 140.596 132.279 140.405 127.845 137.552 125.227 134.7 122.609 130.265 122.799 127.647 125.652 125.187 128.333 125.187 132.451 127.647 135.132 124.917 136.499 122.835 138.886 121.853 141.776 116.895 135.724 117.783 126.798 123.836 121.84 129.889 116.882 138.815 117.77 143.772 123.823 148.048 129.044 148.048 136.556 143.772 141.776Z" fill="#274166" transform="matrix(1 0 0 1.00588 391 365)"/><path d="M37.1875 150.521C46.9675 150.521 54.8958 142.593 54.8958 132.812 54.8958 123.032 46.9675 115.104 37.1875 115.104 27.4075 115.104 19.4792 123.032 19.4792 132.812 19.49 142.588 27.412 150.51 37.1875 150.521ZM29.2471 144.537C29.738 140.152 33.6908 136.995 38.0763 137.486 41.7853 137.901 44.7128 140.828 45.1279 144.537 40.335 147.793 34.04 147.793 29.2471 144.537ZM33.7184 130.431C33.7184 128.515 35.2716 126.962 37.1875 126.962 39.1034 126.962 40.6566 128.515 40.6566 130.431 40.6566 132.347 39.1034 133.9 37.1875 133.9 35.2723 133.898 33.7204 132.346 33.7184 130.431ZM37.1875 118.646C45.0066 118.641 51.349 124.976 51.3536 132.795 51.3556 136.07 50.2224 139.244 48.1472 141.776 47.1647 138.886 45.0829 136.499 42.353 135.132 44.9708 132.279 44.7803 127.845 41.9275 125.227 39.0747 122.609 34.6398 122.799 32.022 125.652 29.5618 128.333 29.5618 132.451 32.022 135.132 29.2921 136.499 27.2103 138.886 26.2278 141.776 21.2723 135.728 22.1581 126.808 28.2064 121.852 30.7392 119.777 33.9131 118.644 37.1875 118.646Z" fill="#274166" transform="matrix(1 0 0 1.00588 391 365)"/><path d="M134.583 109.792 134.583 90.3125 86.7708 90.3125 86.7708 74.375 83.2292 74.375 83.2292 90.3125 35.4167 90.3125 35.4167 109.792 38.9583 109.792 38.9583 93.8542 83.2292 93.8542 83.2292 109.792 86.7708 109.792 86.7708 93.8542 131.042 93.8542 131.042 109.792 134.583 109.792Z" fill="#274166" transform="matrix(1 0 0 1.00588 391 365)"/></g></svg>