<svg width="152" height="152" xmlns="http://www.w3.org/2000/svg" xmlns:xlink="http://www.w3.org/1999/xlink" xml:space="preserve" overflow="hidden"><defs><clipPath id="clip0"><rect x="203" y="360" width="152" height="152"/></clipPath></defs><g clip-path="url(#clip0)" transform="translate(-203 -360)"><path d="M350.408 422.858 332.517 393.092 330.933 390.4 328.242 392.142 316.208 399.583C314.783 400.375 313.675 401.8 313.2 403.383 312.883 404.492 312.883 405.758 313.358 406.867 310.033 407.975 306.708 408.608 303.225 408.608 298.475 408.45 293.725 407.658 289.133 406.233 286.917 405.6 284.542 405.125 282.167 404.65L281.85 404.65 281.85 404.65C281.692 404.65 281.533 404.65 281.533 404.65L281.217 404.65 280.9 404.65C280.583 404.65 280.425 404.65 280.108 404.65L280.108 404.65C277.417 404.65 274.725 405.758 272.983 407.817L271.717 409.242C269.658 408.45 267.442 407.975 265.225 407.975 264.75 407.975 264.433 407.975 263.958 407.975 263.008 407.975 262.217 408.133 261.267 408.133 259.208 408.292 257.15 408.45 255.092 408.45 251.608 408.608 248.125 407.817 244.958 406.392 245.117 405.442 245.117 404.492 244.958 403.383 244.483 401.8 243.375 400.375 241.95 399.583L230.075 392.142 227.383 390.4 225.8 393.092 207.592 422.858 206.008 425.55 208.7 427.133 220.892 434.575C223.108 436 225.8 435.842 227.858 434.258L238.15 446.292 238.308 446.608 238.625 446.767 238.625 446.767 236.408 449.3C233.558 452.625 233.875 457.533 237.042 460.383L237.042 460.383 237.042 460.383C238.467 461.65 240.208 462.283 242.108 462.283 242.425 462.283 242.742 462.283 243.058 462.283 244.167 462.125 245.117 461.808 246.067 461.175 246.225 463.075 247.175 464.975 248.6 466.242L248.6 466.242 248.6 466.242C250.025 467.508 251.767 468.142 253.667 468.142 253.825 468.142 254.142 468.142 254.3 468.142 255.092 468.142 255.883 467.983 256.675 467.667 256.833 469.408 257.625 471.15 259.05 472.258L259.05 472.258 259.05 472.258C260.317 473.367 261.9 474 263.483 474 263.8 474 263.958 474 264.275 474 265.383 474 266.333 473.525 267.283 473.05 267.6 474.158 268.233 475.267 269.183 476.058 270.45 477.167 272.033 477.8 273.775 477.642L274.092 477.642 274.408 477.642C275.358 477.483 276.308 477.008 277.1 476.533L277.258 476.692 279.475 478.433 279.633 478.592 279.792 478.75C281.217 479.7 282.958 480.175 284.542 480.175 284.858 480.175 285.175 480.175 285.492 480.175 289.45 479.858 292.617 477.008 293.725 473.208 297.208 472.575 300.058 469.883 301.008 466.4 304.65 465.608 307.5 462.917 308.292 459.433 308.45 459.433 308.767 459.433 308.925 459.433 313.992 458.958 317.792 454.525 317.475 449.458 317.475 449.142 317.475 448.667 317.475 448.35L318.742 446.767 329.667 434.1C331.725 435.842 334.575 435.842 336.95 434.417L349.142 426.975 351.833 425.392 350.408 422.858ZM222.475 431.883 210.283 424.442 228.333 394.675 240.367 402.117C241.633 402.75 242.267 404.333 241.792 405.6L240.842 407.183 227.067 429.983 226.117 431.408C225.642 431.883 224.85 432.2 224.058 432.2 223.583 432.358 222.95 432.2 222.475 431.883ZM242.742 459.117C242.583 459.117 242.425 459.117 242.267 459.117 239.733 459.117 237.675 456.9 237.675 454.367 237.675 453.258 238.15 452.15 238.783 451.358L247.175 441.858C248.125 440.908 249.392 440.275 250.817 440.275 251.925 440.275 253.033 440.75 253.825 441.383 255.725 443.125 256.042 446.133 254.3 448.033L245.908 457.533C245.117 458.483 244.008 458.958 242.742 459.117ZM254.458 465.133C254.3 465.133 254.142 465.133 253.983 465.133 251.45 465.133 249.392 462.917 249.392 460.383 249.392 459.275 249.867 458.167 250.5 457.375L257.783 448.983C258.733 448.033 260 447.4 261.425 447.4 262.533 447.4 263.642 447.875 264.433 448.508 266.333 450.25 266.65 453.258 264.908 455.158L257.625 463.55C256.833 464.5 255.725 465.133 254.458 465.133L254.458 465.133ZM264.433 470.992C264.275 470.992 264.117 470.992 263.958 470.992 263.008 470.992 262.217 470.675 261.425 470.042 259.842 468.617 259.683 466.083 261.108 464.5L268.392 456.108C269.183 455.317 270.292 454.842 271.4 454.842 272.35 454.842 273.3 455.158 273.933 455.792 275.517 457.217 275.675 459.75 274.25 461.333L266.967 469.725C266.333 470.517 265.383 470.992 264.433 470.992L264.433 470.992ZM274.092 474.792C273.3 474.792 272.35 474.633 271.717 474 270.45 472.892 270.292 470.833 271.4 469.567L277.575 462.442C278.208 461.808 279 461.333 279.95 461.333 280.742 461.333 281.375 461.65 282.008 462.125 283.275 463.233 283.433 465.292 282.325 466.558L276.15 473.683C275.675 474.317 274.883 474.633 274.092 474.792L274.092 474.792ZM308.925 456.267C308.767 456.267 308.45 456.267 308.292 456.267 307.342 456.267 306.392 455.95 305.6 455.633 305.6 455.95 305.758 456.267 305.758 456.583 306.075 460.067 303.542 463.075 300.058 463.392 300.058 463.392 300.058 463.392 300.058 463.392 299.583 463.392 298.95 463.392 298.475 463.233L298.475 463.392C298.792 466.875 296.258 469.883 292.775 470.2 292.775 470.2 292.775 470.2 292.775 470.2 292.3 470.2 291.667 470.2 291.192 470.042L291.192 470.2C291.508 473.683 288.975 476.692 285.492 477.008 285.492 477.008 285.492 477.008 285.492 477.008 285.333 477.008 285.175 477.008 285.017 477.008 283.908 477.008 282.8 476.692 281.692 476.058L279.633 474.475 284.7 468.617C286.917 465.925 286.6 461.967 284.067 459.75 282.958 458.8 281.533 458.167 279.95 458.167 279.475 458.167 278.842 458.167 278.367 458.325 278.208 456.425 277.417 454.683 275.992 453.417 274.725 452.308 272.983 451.675 271.242 451.675L271.242 451.675C270.45 451.675 269.817 451.833 269.025 451.992 269.025 449.775 268.075 447.717 266.333 446.133 264.908 444.867 263.167 444.075 261.267 444.233L261.267 444.233C260.317 444.233 259.367 444.392 258.417 444.708 258.258 442.492 257.308 440.433 255.725 439.008 254.3 437.742 252.558 436.95 250.658 437.108L250.658 437.108C248.442 437.108 246.225 438.058 244.642 439.8L240.525 444.55 240.367 444.392 229.6 431.883 243.375 409.083C246.858 410.825 250.817 411.617 254.775 411.458 257.942 411.458 261.108 411.142 263.958 410.825 264.275 410.825 264.592 410.825 264.908 410.825 266.333 410.825 267.758 410.983 269.025 411.458L260.317 421.75C258.575 423.65 257.783 426.183 257.942 428.717 258.1 431.25 259.367 433.467 261.267 435.208L261.267 435.208 261.267 435.208C263.008 436.633 265.225 437.425 267.442 437.425 267.758 437.425 267.917 437.425 268.233 437.425 270.767 437.267 273.142 436 274.725 434.1L285.492 421.75 285.492 421.75 287.233 423.333 312.725 445.183C313.833 446.133 314.467 447.717 314.467 449.142 314.467 449.3 314.467 449.775 314.467 449.775 314.783 453.1 312.25 455.95 308.925 456.267 308.925 456.267 308.925 456.267 308.925 456.267ZM316.683 444.708C316.208 443.917 315.575 443.283 314.942 442.65L285.333 417.158 272.35 432.042C271.242 433.308 269.817 434.1 268.075 434.258 267.917 434.258 267.758 434.258 267.6 434.258 266.017 434.258 264.592 433.625 263.325 432.675 260.633 430.458 260.317 426.658 262.533 423.967 262.533 423.967 262.692 423.808 262.692 423.808L275.2 409.558C276.467 408.133 278.208 407.5 279.95 407.5 280.108 407.5 280.267 407.5 280.583 407.5 280.9 407.5 281.058 407.658 281.375 407.658 288.658 409.083 295.308 411.617 303.067 411.617 307.025 411.617 310.983 410.983 314.625 409.558L323.808 424.442 328.083 431.567 316.683 444.708ZM335.525 431.883C335.05 432.2 334.417 432.358 333.942 432.358 333.15 432.358 332.358 432.042 331.725 431.408L330.775 429.825 326.5 422.858 316.525 406.392C315.575 404.967 316.05 403.225 317.317 402.275 317.475 402.275 317.475 402.117 317.633 402.117L329.825 394.675 347.717 424.442 335.525 431.883Z" fill="#274166"/></g></svg>