<svg width="166" height="165" xmlns="http://www.w3.org/2000/svg" xmlns:xlink="http://www.w3.org/1999/xlink" xml:space="preserve" overflow="hidden"><defs><clipPath id="clip0"><rect x="20" y="344" width="166" height="165"/></clipPath></defs><g clip-path="url(#clip0)" transform="translate(-20 -344)"><path d="M82.5 33.7855C90.094 33.7855 96.25 27.6294 96.25 20.0355 96.25 12.4416 90.094 6.28547 82.5 6.28547 74.906 6.28547 68.75 12.4416 68.75 20.0355 68.7586 27.6258 74.9097 33.7769 82.5 33.7855ZM82.5 9.72297C88.1954 9.72297 92.8125 14.34 92.8125 20.0355 92.8125 25.7309 88.1954 30.348 82.5 30.348 76.8046 30.348 72.1875 25.7309 72.1875 20.0355 72.1942 14.3428 76.8073 9.7296 82.5 9.72297Z" fill="#274166" transform="matrix(1.00606 0 0 1 20 344)"/><path d="M56.693 52.9839C56.7975 51.3078 57.5346 49.7338 58.7555 48.5805 62.6557 45.7849 66.9998 43.6681 71.6048 42.3191 75.1467 41.284 78.8107 40.7263 82.5 40.6605 86.1855 40.672 89.8489 41.2292 93.3711 42.3139 98.0153 43.501 102.371 45.6163 106.176 48.5323 107.406 49.725 108.165 51.3203 108.316 53.0269L109.622 59.5581 113.126 59.5581 111.698 52.4253C111.442 49.892 110.243 47.5477 108.338 45.858 104.182 42.6542 99.4185 40.3265 94.337 39.0156 90.5015 37.8374 86.5124 37.2333 82.5 37.223 78.4994 37.291 74.526 37.8938 70.6853 39.0156 65.6578 40.4757 60.9189 42.7897 56.6758 45.8563 54.7836 47.5262 53.585 49.8438 53.3156 52.3531L51.8736 59.5616 55.3781 59.5616Z" fill="#274166" transform="matrix(1.00606 0 0 1 20 344)"/><path d="M116.875 85.348 123.75 64.723 41.25 64.723 48.125 85.348 58.4375 85.348 64.9842 154.098 55 154.098 55 157.535 110 157.535 110 154.098 100.019 154.098 106.568 85.348ZM68.4355 154.098 61.8887 85.348 103.115 85.348 96.5662 154.098ZM103.436 81.9105 50.6052 81.9105 46.0212 68.1605 118.987 68.1605 114.403 81.9105 103.441 81.9105Z" fill="#274166" transform="matrix(1.00606 0 0 1 20 344)"/></g></svg>