<svg width="136" height="137" xmlns="http://www.w3.org/2000/svg" xmlns:xlink="http://www.w3.org/1999/xlink" xml:space="preserve" overflow="hidden"><defs><clipPath id="clip0"><rect x="1109" y="188" width="136" height="137"/></clipPath></defs><g clip-path="url(#clip0)" transform="translate(-1109 -188)"><path d="M121.833 28.3333 36.8333 28.3333C32.9232 28.338 29.7547 31.5065 29.75 35.4167L29.75 55.6934C30.6792 55.467 31.6279 55.3303 32.5833 55.2854L32.5833 35.4167C32.5833 33.0694 34.4861 31.1667 36.8333 31.1667L121.833 31.1667C124.181 31.1667 126.083 33.0694 126.083 35.4167L126.083 89.25C126.083 91.5973 124.181 93.5 121.833 93.5L67.0608 93.5 64.4173 96.3333 121.833 96.3333C125.743 96.3287 128.912 93.1601 128.917 89.25L128.917 35.4167C128.912 31.5065 125.743 28.338 121.833 28.3333Z" fill="#274166" transform="matrix(1 0 0 1.00735 1109 188)"/><path d="M80.75 71.7811C80.6211 68.0458 77.4885 65.1222 73.7532 65.2511 71.9585 65.313 70.2617 66.0858 69.037 67.3993L49.1739 88.791C44.2642 86.3777 38.8781 85.0895 33.4078 85.0198 33.3696 85.0198 33.3356 84.9972 33.2959 84.9972 33.1897 84.9972 33.0863 85.0071 32.98 85.0085 32.8483 85.0085 32.7193 84.9972 32.5876 84.9972 32.5398 85.0044 32.4925 85.0143 32.4459 85.0269 25.7896 85.0999 19.2828 87.0119 13.6453 90.5519 11.56 91.9026 10.0466 93.9754 9.39533 96.373L6.06333 108.715C5.8604 109.47 6.30737 110.247 7.06208 110.45 7.18302 110.483 7.30786 110.5 7.43325 110.5 8.07348 110.5 8.63387 110.07 8.80033 109.452L12.1267 97.1153C12.5963 95.3918 13.6861 93.9025 15.1867 92.9333 20.515 89.5971 26.6778 87.8346 32.9644 87.8489 38.4836 87.8534 43.9177 89.2099 48.7914 91.8 49.3612 92.1097 50.0684 91.993 50.5084 91.5167L71.1053 69.3288C72.5884 67.7406 75.0782 67.6552 76.6665 69.1383 78.2547 70.6214 78.3401 73.1112 76.857 74.6994L44.3672 109.508C43.8335 110.081 43.865 110.977 44.4373 111.511 45.0096 112.044 45.9061 112.013 46.4397 111.441L78.9296 76.6317C80.1598 75.3229 80.8154 73.5761 80.75 71.7811Z" fill="#274166" transform="matrix(1 0 0 1.00735 1109 188)"/><path d="M33.2917 82.1667C39.9421 82.1667 45.3333 76.7754 45.3333 70.125 45.3333 63.4746 39.9421 58.0833 33.2917 58.0833 26.6413 58.0833 21.25 63.4746 21.25 70.125 21.2578 76.7721 26.6445 82.1589 33.2917 82.1667ZM33.2917 60.9167C38.3774 60.9167 42.5 65.0393 42.5 70.125 42.5 75.2107 38.3774 79.3333 33.2917 79.3333 28.206 79.3333 24.0833 75.2107 24.0833 70.125 24.0896 65.042 28.2087 60.9229 33.2917 60.9167Z" fill="#274166" transform="matrix(1 0 0 1.00735 1109 188)"/></g></svg>