<svg width="162" height="162" xmlns="http://www.w3.org/2000/svg" xmlns:xlink="http://www.w3.org/1999/xlink" xml:space="preserve" overflow="hidden"><defs><clipPath id="clip0"><rect x="918" y="180" width="162" height="162"/></clipPath></defs><g clip-path="url(#clip0)" transform="translate(-918 -180)"><path d="M990.482 240.453 995.605 236.058 997.803 238.62 992.68 243.015Z" fill="#274166"/><path d="M990.482 279.857 992.68 277.294 997.803 281.688 995.605 284.251Z" fill="#274166"/><path d="M1000.73 288.645 1002.93 286.082 1008.05 290.477 1005.85 293.04Z" fill="#274166"/><path d="M995.643 258.467 1002.39 258.467 1002.39 261.842 995.643 261.842Z" fill="#274166"/><path d="M1022.64 258.467 1029.39 258.467 1029.39 261.842 1022.64 261.842Z" fill="#274166"/><path d="M1009.14 258.467 1015.89 258.467 1015.89 261.842 1009.14 261.842Z" fill="#274166"/><path d="M1000.73 231.664 1005.85 227.269 1008.05 229.832 1002.93 234.227Z" fill="#274166"/><path d="M982.15 252.045 987.557 247.409 985.358 244.847 982.15 247.597 982.15 222.184 975.395 222.184 975.395 213.739 934.895 213.739 934.895 222.183 928.145 222.183 928.145 301.456 924.77 301.456 924.77 304.831 985.52 304.831 985.52 301.456 982.15 301.456 982.15 272.711 985.358 275.462 987.557 272.899 982.15 268.263 982.15 261.842 988.893 261.842 988.893 258.467 982.15 258.467ZM938.27 217.114 972.02 217.114 972.02 222.184 938.27 222.184ZM958.52 301.457 958.52 286.308 951.77 286.308 951.77 301.456 931.52 301.456 931.52 225.558 978.775 225.558 978.775 301.456Z" fill="#274166"/><path d="M965.27 272.808 972.02 272.808 972.02 279.558 965.27 279.558Z" fill="#274166"/><path d="M938.27 272.808 945.02 272.808 945.02 279.558 938.27 279.558Z" fill="#274166"/><path d="M951.77 272.808 958.52 272.808 958.52 279.558 951.77 279.558Z" fill="#274166"/><path d="M938.27 259.308 945.02 259.308 945.02 266.058 938.27 266.058Z" fill="#274166"/><path d="M951.77 245.808 958.52 245.808 958.52 252.558 951.77 252.558Z" fill="#274166"/><path d="M951.77 259.308 958.52 259.308 958.52 266.058 951.77 266.058Z" fill="#274166"/><path d="M938.27 245.808 945.02 245.808 945.02 252.558 938.27 252.558Z" fill="#274166"/><path d="M965.27 232.308 972.02 232.308 972.02 239.058 965.27 239.058Z" fill="#274166"/><path d="M938.27 286.308 945.02 286.308 945.02 293.058 938.27 293.058Z" fill="#274166"/><path d="M965.27 286.308 972.02 286.308 972.02 293.058 965.27 293.058Z" fill="#274166"/><path d="M938.27 232.308 945.02 232.308 945.02 239.058 938.27 239.058Z" fill="#274166"/><path d="M965.27 245.808 972.02 245.808 972.02 252.558 965.27 252.558Z" fill="#274166"/><path d="M951.77 232.308 958.52 232.308 958.52 239.058 951.77 239.058Z" fill="#274166"/><path d="M965.27 259.308 972.02 259.308 972.02 266.058 965.27 266.058Z" fill="#274166"/><path d="M1053.86 240.748C1043.14 240.748 1034.46 249.437 1034.46 260.155 1034.46 270.872 1043.14 279.561 1053.86 279.561 1064.58 279.561 1073.27 270.872 1073.27 260.155 1073.26 249.442 1064.57 240.76 1053.86 240.748ZM1044.7 273.288C1045.22 268.226 1049.75 264.546 1054.81 265.069 1059.15 265.517 1062.58 268.947 1063.03 273.287 1057.53 277.152 1050.2 277.152 1044.7 273.288ZM1049.72 257.507C1049.72 255.221 1051.58 253.367 1053.86 253.367 1056.15 253.366 1058 255.219 1058 257.505 1058 259.791 1056.15 261.644 1053.86 261.645 1053.86 261.645 1053.86 261.645 1053.86 261.645 1051.58 261.642 1049.73 259.791 1049.72 257.507ZM1065.93 270.673C1064.9 267.21 1062.43 264.355 1059.16 262.829 1062.1 259.904 1062.12 255.147 1059.19 252.203 1056.27 249.26 1051.51 249.245 1048.57 252.17 1045.62 255.095 1045.61 259.852 1048.53 262.795 1048.54 262.806 1048.55 262.818 1048.57 262.829 1045.29 264.355 1042.83 267.211 1041.79 270.674 1035.97 264.009 1036.64 253.881 1043.31 248.053 1049.97 242.225 1060.1 242.903 1065.93 249.568 1071.21 255.611 1071.21 264.63 1065.93 270.673Z" fill="#274166"/><path d="M1026.86 233.998C1037.58 233.998 1046.27 225.31 1046.27 214.592 1046.27 203.874 1037.58 195.186 1026.86 195.186 1016.14 195.186 1007.46 203.874 1007.46 214.592 1007.47 225.305 1016.15 233.986 1026.86 233.998ZM1017.7 227.726C1018.22 222.664 1022.75 218.983 1027.81 219.506 1032.15 219.954 1035.58 223.385 1036.03 227.725 1030.53 231.589 1023.2 231.59 1017.7 227.726ZM1022.72 211.944C1022.72 209.658 1024.58 207.805 1026.86 207.804 1029.15 207.804 1031 209.656 1031 211.942 1031 214.228 1029.15 216.082 1026.86 216.082 1026.86 216.082 1026.86 216.082 1026.86 216.082 1024.58 216.08 1022.73 214.229 1022.72 211.944ZM1026.86 198.561C1035.7 198.548 1042.88 205.703 1042.89 214.544 1042.9 218.43 1041.49 222.186 1038.93 225.11 1037.9 221.647 1035.43 218.792 1032.16 217.266 1035.1 214.341 1035.12 209.584 1032.19 206.641 1029.27 203.697 1024.51 203.682 1021.57 206.607 1018.62 209.532 1018.61 214.289 1021.53 217.233 1021.54 217.244 1021.55 217.255 1021.57 217.266 1018.29 218.792 1015.83 221.648 1014.79 225.111 1008.97 218.46 1009.64 208.348 1016.29 202.524 1019.22 199.964 1022.97 198.555 1026.86 198.561Z" fill="#274166"/><path d="M1026.86 286.311C1016.14 286.311 1007.46 294.999 1007.46 305.717 1007.46 316.435 1016.14 325.123 1026.86 325.123 1037.58 325.123 1046.27 316.435 1046.27 305.717 1046.26 295.004 1037.57 286.323 1026.86 286.311ZM1017.7 318.851C1018.22 313.789 1022.75 310.108 1027.81 310.631 1032.15 311.079 1035.58 314.51 1036.03 318.85 1030.53 322.714 1023.2 322.715 1017.7 318.851ZM1022.72 303.069C1022.72 300.784 1024.58 298.93 1026.86 298.929 1029.15 298.929 1031 300.781 1031 303.067 1031 305.353 1029.15 307.207 1026.86 307.207 1026.86 307.207 1026.86 307.207 1026.86 307.207 1024.58 307.205 1022.73 305.354 1022.72 303.069ZM1038.93 316.235C1037.9 312.773 1035.43 309.917 1032.16 308.391 1035.1 305.466 1035.12 300.709 1032.19 297.766 1029.27 294.822 1024.51 294.807 1021.57 297.732 1018.62 300.657 1018.61 305.414 1021.53 308.358 1021.54 308.369 1021.55 308.38 1021.57 308.391 1018.29 309.917 1015.83 312.773 1014.79 316.236 1008.97 309.571 1009.64 299.444 1016.31 293.615 1022.97 287.787 1033.1 288.466 1038.93 295.131 1044.21 301.173 1044.21 310.192 1038.93 316.235Z" fill="#274166"/></g></svg>