<svg id="Capa_1" enable-background="new 0 0 512 512" height="512" viewBox="0 0 512 512" width="512" xmlns="http://www.w3.org/2000/svg"><g><g><path d="m436.096 215.594v-187.891c0-11.158-9.045-20.203-20.203-20.203h-187.89v69.701c0 5.579 4.523 10.102 10.102 10.102h23.588c2.834 0 5.515-1.211 7.446-3.284 7.979-8.569 19.636-13.668 32.459-12.778 19.917 1.382 36.049 17.52 37.424 37.437 1.63 23.613-17.043 43.275-40.307 43.275-11.669 0-22.182-4.948-29.558-12.859-1.939-2.08-4.623-3.304-7.466-3.304h-23.586c-5.579 0-10.102 4.523-10.102 10.102v69.701h208.093z" fill="#c8ea73"/></g><g><path d="m415.892 7.5h-44.682c5.092 20.374 7.811 41.689 7.811 63.64 0 53.405-16.02 103.058-43.492 144.453h100.566v-187.89c.001-11.158-9.045-20.203-20.203-20.203z" fill="#b7e445"/></g><g><path d="m301.598 71.241c-12.823-.89-24.481 4.208-32.461 12.778-1.931 2.074-4.612 3.284-7.446 3.284h-23.588c-5.579 0-10.102-4.523-10.102-10.102v-69.701h-187.889c-11.158 0-20.203 9.045-20.203 20.203v187.89h69.701c5.579 0 10.102-4.523 10.102-10.102v-23.588c0-2.834-1.211-5.515-3.284-7.446-8.569-7.979-13.668-19.636-12.778-32.459 1.382-19.917 17.52-36.049 37.437-37.424 23.613-1.63 43.275 17.043 43.275 40.307 0 11.669-4.948 22.182-12.859 29.558-2.08 1.939-3.304 4.623-3.304 7.466v23.586c0 5.579 4.523 10.102 10.102 10.102h69.701v-69.701c0-5.579 4.523-10.102 10.102-10.102h23.586c2.843 0 5.527 1.224 7.466 3.304 7.376 7.911 17.889 12.859 29.558 12.859 23.264 0 41.936-19.661 40.307-43.273-1.374-19.918-17.506-36.057-37.423-37.439z" fill="#f6e266"/></g><g><path d="m83.649 141.997c-.89 12.823 4.208 24.481 12.778 32.461 2.074 1.931 3.284 4.612 3.284 7.446v23.588c0 5.579-4.523 10.102-10.102 10.102h-69.7v187.89c0 11.158 9.045 20.203 20.203 20.203h187.89v-69.701c0-5.579-4.523-10.102-10.102-10.102h-23.588c-2.834 0-5.515 1.211-7.446 3.284-7.979 8.569-19.636 13.668-32.459 12.778-19.917-1.382-36.049-17.52-37.424-37.437-1.63-23.613 17.043-43.275 40.307-43.275 11.669 0 22.182 4.948 29.558 12.859 1.939 2.08 4.623 3.304 7.466 3.304h23.586c5.579 0 10.102-4.523 10.102-10.102v-69.701h-69.701c-5.579 0-10.102-4.523-10.102-10.102v-23.586c0-2.843 1.224-5.527 3.304-7.466 7.911-7.376 12.859-17.889 12.859-29.558 0-23.264-19.661-41.936-43.273-40.307-19.918 1.374-36.057 17.505-37.44 37.422z" fill="#dd5790"/></g><g><path d="m217.901 343.884h-23.588c-2.834 0-5.515 1.211-7.446 3.284-7.979 8.569-19.636 13.668-32.459 12.778-16.361-1.135-30.16-12.231-35.331-27.195-.563.004-1.123.021-1.688.021-34.457 0-67.352-6.675-97.481-18.78v89.491c0 11.158 9.045 20.203 20.203 20.203h187.89v-69.701c.001-5.578-4.522-10.101-10.1-10.101z" fill="#da387d"/></g><g><g><path d="m472.849 360.047c0-7.959-.773-15.739-2.23-23.278l21.472-20.299-33.081-57.298-28.384 8.466c-11.69-10.156-25.321-18.131-40.251-23.297l-6.844-28.746h-66.162l-6.844 28.746c-14.93 5.166-28.561 13.141-40.251 23.297l-28.384-8.466-33.081 57.298 21.472 20.299c-1.458 7.539-2.23 15.32-2.23 23.278s.773 15.739 2.23 23.278l-21.472 20.299 33.081 57.298 28.384-8.466c11.69 10.156 25.321 18.131 40.251 23.297l6.844 28.746h66.162l6.844-28.746c14.93-5.166 28.561-13.141 40.251-23.297l28.384 8.466 33.081-57.298-21.472-20.299c1.457-7.539 2.23-15.32 2.23-23.278z" fill="#4073c8"/></g><g><path d="m472.849 360.047c0-7.873-.759-15.571-2.186-23.034-14.085 77.691-82.073 136.611-163.826 136.611-.689 0-1.373-.018-2.06-.026 1.893.764 3.809 1.484 5.747 2.155l6.844 28.746h66.162l6.844-28.746c14.93-5.166 28.561-13.141 40.251-23.297l28.384 8.466 33.081-57.298-21.472-20.299c1.458-7.539 2.231-15.32 2.231-23.278z" fill="#30579d"/></g><g><circle cx="350.45" cy="360.047" fill="#ecf4ff" r="87.113"/></g><g><g><path d="m339.974 396.987c-4.515 0-9.03-1.722-12.476-5.167l-17.643-17.643c-6.89-6.89-6.89-18.061 0-24.952 6.891-6.89 18.061-6.89 24.952 0l5.167 5.168 26.118-26.119c6.891-6.89 18.061-6.89 24.952 0 6.89 6.89 6.89 18.061 0 24.952l-38.594 38.594c-3.445 3.445-7.961 5.167-12.476 5.167z" fill="#c8ea73"/></g></g></g><g><path d="m478.707 380.65c1.091-6.808 1.643-13.72 1.643-20.604s-.552-13.796-1.643-20.604l18.536-17.523c2.523-2.386 3.079-6.192 1.343-9.2l-33.081-57.298c-1.736-3.007-5.31-4.431-8.639-3.437l-24.508 7.309c-10.757-8.769-22.708-15.686-35.623-20.619l-3.71-15.584h43.074c4.143 0 7.5-3.358 7.5-7.5v-106.11c0-4.142-3.357-7.5-7.5-7.5s-7.5 3.358-7.5 7.5v98.61h-193.1v-62.2c0-1.434 1.166-2.6 2.6-2.6h23.591c.719 0 1.442.334 1.979.909 9.02 9.692 21.791 15.251 35.04 15.251 13.233 0 26.003-5.55 35.034-15.226 9.155-9.81 13.687-22.617 12.758-36.058-1.627-23.677-20.708-42.768-44.383-44.408-14.539-1.01-28.562 4.512-38.465 15.147-.538.577-1.235.894-1.964.894h-23.591c-1.434 0-2.6-1.166-2.6-2.6v-62.199h180.39c7.008 0 12.71 5.697 12.71 12.7v46.78c0 4.142 3.357 7.5 7.5 7.5s7.5-3.358 7.5-7.5v-46.78c0-15.274-12.431-27.7-27.71-27.7h-375.778c-15.274 0-27.7 12.426-27.7 27.7v59.28c0 4.142 3.357 7.5 7.5 7.5s7.5-3.358 7.5-7.5v-59.28c0-7.003 5.697-12.7 12.7-12.7h180.39v62.2c0 9.705 7.896 17.6 17.6 17.6h23.591c4.863 0 9.578-2.065 12.938-5.668 6.807-7.31 16.438-11.105 26.453-10.409 16.246 1.125 29.34 14.226 30.456 30.475.64 9.251-2.472 18.056-8.76 24.793-6.295 6.746-14.843 10.46-24.067 10.46-9.232 0-17.776-3.718-24.065-10.477-3.37-3.612-8.092-5.684-12.954-5.684h-23.591c-9.704 0-17.6 7.896-17.6 17.6v62.2h-62.2c-1.434 0-2.6-1.166-2.6-2.6v-23.58c0-.73.325-1.435.916-1.986 9.688-9.038 15.244-21.812 15.244-35.044 0-13.23-5.551-25.999-15.228-35.031-9.811-9.157-22.62-13.689-36.062-12.761-23.674 1.641-42.764 20.726-44.403 44.392-1.01 14.541 4.513 28.562 15.147 38.466.568.53.895 1.242.895 1.954v23.59c0 1.434-1.166 2.6-2.6 2.6h-62.2v-86.11c0-4.142-3.357-7.5-7.5-7.5s-7.5 3.358-7.5 7.5v164.74c0 4.142 3.357 7.5 7.5 7.5s7.5-3.358 7.5-7.5v-63.63h62.2c9.704 0 17.6-7.895 17.6-17.6v-23.59c0-4.857-2.065-9.569-5.669-12.929-7.31-6.807-11.104-16.448-10.408-26.453 1.125-16.243 14.227-29.34 30.474-30.466 9.236-.637 18.054 2.473 24.791 8.762 6.747 6.297 10.463 14.844 10.463 24.065 0 9.223-3.721 17.773-10.476 24.075-3.612 3.369-5.685 8.091-5.685 12.955v23.58c0 9.705 7.896 17.6 17.6 17.6h62.2v58.131l-3.856 6.679h-22.324c-.724 0-1.43-.329-1.987-.927-9.038-9.687-21.811-15.243-35.043-15.243-13.228 0-25.995 5.551-35.028 15.229-9.159 9.814-13.692 22.623-12.764 36.069 1.64 23.663 20.723 42.752 44.393 44.404 14.539 1.008 28.562-4.513 38.478-15.162.525-.566 1.233-.891 1.941-.891h23.59c1.434 0 2.6 1.171 2.6 2.61v28.261l-16.843 15.923c-2.523 2.386-3.079 6.192-1.343 9.2l5.09 8.815h-167.294c-7.003 0-12.7-5.702-12.7-12.71v-81.76c0-4.142-3.357-7.5-7.5-7.5s-7.5 3.358-7.5 7.5v81.76c0 15.279 12.426 27.71 27.7 27.71h175.954l19.331 33.482c1.736 3.008 5.312 4.431 8.639 3.437l24.508-7.31c10.756 8.769 22.707 15.686 35.623 20.62l5.908 24.817c.804 3.379 3.823 5.763 7.296 5.763h66.162c3.473 0 6.492-2.384 7.296-5.763l5.908-24.817c12.916-4.934 24.867-11.851 35.623-20.62l24.508 7.31c3.327.994 6.901-.43 8.639-3.437l33.081-57.298c1.736-3.008 1.181-6.814-1.343-9.2zm-170.832-157.56-3.71 15.584c-12.915 4.933-24.866 11.851-35.623 20.619l-24.508-7.309c-3.267-.975-6.765.389-8.534 3.287v-32.181zm-113.566 113.29c-4.868 0-9.584 2.074-12.929 5.679-6.806 7.31-16.456 11.106-26.448 10.409-16.246-1.134-29.345-14.236-30.47-30.475-.64-9.251 2.474-18.059 8.766-24.799 6.297-6.748 14.843-10.464 24.062-10.464 9.223 0 17.772 3.721 24.075 10.476 3.376 3.619 8.098 5.694 12.955 5.694h13.663l-5.669 9.819c-1.736 3.008-1.181 6.814 1.343 9.2l15.356 14.517c-.37-.023-.737-.056-1.113-.056zm261.167 115.662-22.707-6.772c-2.462-.735-5.125-.158-7.062 1.525-11.165 9.7-23.877 17.059-37.784 21.872-2.424.838-4.25 2.856-4.844 5.351l-5.472 22.982h-54.314l-5.472-22.983c-.594-2.494-2.42-4.512-4.844-5.351-13.907-4.812-26.619-12.171-37.784-21.872-1.938-1.683-4.599-2.26-7.062-1.525l-22.707 6.772-18.405-31.877c-.038-.071-.08-.138-.12-.208l-8.633-14.952 17.167-16.229c1.864-1.763 2.698-4.355 2.211-6.874-1.39-7.186-2.094-14.538-2.094-21.854s.704-14.669 2.094-21.855c.487-2.519-.347-5.111-2.211-6.874l-17.167-16.229 27.157-47.037 22.707 6.772c2.463.736 5.125.158 7.062-1.525 11.166-9.701 23.878-17.059 37.784-21.871 2.423-.838 4.25-2.856 4.844-5.351l5.472-22.983h54.314l5.472 22.983c.594 2.495 2.421 4.513 4.844 5.351 13.906 4.812 26.618 12.17 37.784 21.871 1.938 1.683 4.599 2.26 7.062 1.525l22.707-6.772 27.157 47.037-17.167 16.229c-1.864 1.763-2.698 4.355-2.211 6.874 1.39 7.186 2.094 14.539 2.094 21.855s-.704 14.669-2.094 21.854c-.487 2.519.347 5.111 2.211 6.874l17.167 16.229z"/><path d="m350.45 265.434c-52.17 0-94.613 42.443-94.613 94.613 0 52.169 42.443 94.613 94.613 94.613s94.613-42.443 94.613-94.613-42.443-94.613-94.613-94.613zm0 174.226c-43.898 0-79.613-35.714-79.613-79.613s35.715-79.613 79.613-79.613 79.613 35.714 79.613 79.613c0 43.898-35.715 79.613-79.613 79.613z"/><path d="m360.789 322.971-20.814 20.815c-9.815-9.667-25.664-9.621-35.423.136-9.803 9.803-9.803 25.755 0 35.558l17.645 17.644c4.749 4.749 11.062 7.364 17.778 7.364s13.029-2.615 17.779-7.364l38.595-38.595c9.802-9.803 9.802-25.754-.001-35.558-9.804-9.804-25.755-9.803-35.559 0zm24.952 24.951-38.594 38.594c-1.916 1.916-4.464 2.971-7.173 2.971s-5.257-1.055-7.172-2.971l-17.644-17.643c-3.955-3.955-3.955-10.39-.001-14.345 1.979-1.978 4.575-2.966 7.174-2.966 2.597 0 5.195.989 7.172 2.966l5.167 5.167c1.406 1.406 3.314 2.197 5.304 2.197s3.896-.79 5.304-2.197l26.117-26.118c3.955-3.955 10.391-3.956 14.346 0 3.955 3.955 3.955 10.39 0 14.345z"/></g></g></svg>